<?xml version="1.0" standalone="no"?>
<!DOCTYPE svg PUBLIC "-//W3C//DTD SVG 1.1//EN" "http://www.w3.org/Graphics/SVG/1.1/DTD/svg11.dtd" >
<svg xmlns="http://www.w3.org/2000/svg" xmlns:xlink="http://www.w3.org/1999/xlink" version="1.1">
<metadata>
Created by FontForge 20160405 at Thu Nov  9 14:19:19 2017
 By Apache
(c) BMW AG/URW++ Design and Development /2011
</metadata>
<defs>
<font id="BMWGroupCondensed-Regular" horiz-adv-x="1040" >
  <font-face 
    font-family="BMW Group Condensed"
    font-weight="400"
    font-stretch="normal"
    units-per-em="2048"
    panose-1="2 11 6 6 2 2 2 2 2 4"
    ascent="1638"
    descent="-410"
    x-height="1081"
    cap-height="1544"
    bbox="-297 -424 2419 2083"
    underline-thickness="123"
    underline-position="-204"
    unicode-range="U+0020-FB02"
  />
<missing-glyph horiz-adv-x="2048" 
 />
    <glyph glyph-name=".notdef" horiz-adv-x="2048" 
 />
    <glyph glyph-name=".null" horiz-adv-x="0" 
 />
    <glyph glyph-name="nonmarkingreturn" horiz-adv-x="1024" 
 />
    <glyph glyph-name="space" unicode=" " horiz-adv-x="380" 
 />
    <glyph glyph-name="exclam" unicode="!" horiz-adv-x="581" 
d="M184 0v279h199v-279h-199zM207 518l-23 723v303h197v-303l-23 -723h-151z" />
    <glyph glyph-name="quotedbl" unicode="&#x22;" horiz-adv-x="833" 
d="M184 909l-34 455v180h194v-180l-37 -455h-123zM510 909l-35 455v180h195v-180l-35 -455h-125z" />
    <glyph glyph-name="numbersign" unicode="#" horiz-adv-x="1192" 
d="M195 0l73 385h-153v145h180l76 402h-154v145h180l72 383h145l-71 -383h223l74 383h143l-74 -383h152v-145h-178l-76 -402h151v-145h-178l-71 -385h-146l74 385h-225l-74 -385h-143zM440 530h224l75 402h-225z" />
    <glyph glyph-name="dollar" unicode="$" horiz-adv-x="1124" 
d="M494 -190v161q-102 9 -174 44t-121.5 91.5t-79 133t-45.5 170.5l168 30q8 -54 23 -107.5t43.5 -97.5t73 -75t112.5 -41v600l-41 14q-88 31 -153.5 70t-109.5 90t-66 116t-22 146q0 88 25 162t74.5 128.5t123 88t169.5 41.5v127h124v-131q120 -13 199 -64.5t122 -136.5
t62 -176l-161 -41q-20 88 -47.5 143t-73.5 87.5t-101 43.5v-573l62 -20q100 -35 164 -74.5t102 -91.5q38 -51 57 -115.5t19 -149.5q0 -90 -23.5 -165.5t-73 -131.5t-126 -91t-181.5 -44v-161h-124zM618 119q118 18 172 87t54 181t-49 183.5t-154 103.5q-4 0 -23 8v-563z
M494 891v541q-59 -7 -101.5 -29t-70 -56.5t-41 -80.5t-13.5 -101q0 -103 54 -169.5t172 -104.5z" />
    <glyph glyph-name="percent" unicode="%" horiz-adv-x="1734" 
d="M487 -37l588 1534h158l-586 -1534h-160zM1329 -37q-84 0 -145 30.5t-100.5 89.5t-58.5 145.5t-19 197.5q0 165 43.5 273t119.5 147t160 39q123 0 198 -68t99.5 -175t24.5 -216q0 -111 -19 -197t-58.5 -145t-100 -90t-144.5 -31zM1329 102q87 0 125.5 81.5t38.5 240.5
q0 158 -38.5 239.5t-125.5 81.5t-125.5 -81.5t-38.5 -239.5q0 -159 38.5 -240.5t125.5 -81.5zM391 575q-84 0 -145 30.5t-100 89.5t-57.5 144.5t-18.5 196.5q0 110 18.5 195.5t57.5 144.5t100 90t145 31q124 0 198 -67t100 -175.5t26 -218.5q0 -169 -45.5 -277t-120 -146
t-158.5 -38zM391 715q87 0 125.5 81.5t38.5 239.5t-38.5 240t-125.5 82q-85 0 -124.5 -82t-39.5 -240t39.5 -239.5t124.5 -81.5z" />
    <glyph glyph-name="ampersand" unicode="&#x26;" horiz-adv-x="1116" 
d="M455 -37q-81 0 -151.5 30.5t-122.5 87t-81.5 136.5t-29.5 178q0 152 73 266.5t205 206.5q-26 44 -50.5 88.5t-44 91t-31 95t-11.5 100.5q0 104 48 180.5t122 109t151 32.5q106 0 181 -51t103.5 -122t29.5 -137q1 -76 -23 -137.5t-64.5 -112.5t-93.5 -93.5t-110 -80.5
l274 -442q52 86 132 258l124 -55q-32 -79 -75 -166t-99 -166l162 -258h-192l-78 129q-74 -80 -159.5 -124t-188.5 -44zM473 113q79 0 141 38t113 101l-301 493q-63 -46 -101 -90t-58.5 -87.5t-27 -86t-6.5 -84.5q0 -57 15.5 -108.5t46 -90.5t75 -62t103.5 -23zM481 948
q89 54 138.5 113t63 107.5t13.5 82.5q0 61 -25 105t-64 63t-77 19q-60 0 -99 -31.5t-52.5 -75t-13.5 -86.5q0 -70 27 -133.5t89 -163.5z" />
    <glyph glyph-name="quotesingle" unicode="'" horiz-adv-x="499" 
d="M180 909l-37 455v180h197v-180l-37 -455h-123z" />
    <glyph glyph-name="parenleft" unicode="(" horiz-adv-x="575" 
d="M395 -399q-61 77 -117.5 175.5t-100.5 220t-70.5 267t-26.5 316.5q0 169 26.5 313.5t70.5 265.5t100.5 219.5t117.5 175.5l119 -81q-45 -69 -89.5 -164t-80 -210t-58 -246.5t-22.5 -272.5q0 -143 22.5 -275.5t58 -248t80 -210.5t89.5 -163z" />
    <glyph glyph-name="parenright" unicode=")" horiz-adv-x="575" 
d="M166 -399l-119 82q75 114 133.5 267.5t87.5 320t29 309.5q0 141 -22.5 272.5t-58 246.5t-80 210t-89.5 164l119 81q61 -77 117.5 -175.5t100.5 -219.5t70.5 -265.5t26.5 -313.5q0 -171 -26.5 -316.5t-70.5 -267t-100.5 -220t-117.5 -175.5z" />
    <glyph glyph-name="asterisk" unicode="*" horiz-adv-x="913" 
d="M385 737l6 285l-205 -141l-73 110l221 150l-221 149l73 113l205 -143l-6 284h139l-6 -284l205 143l74 -113l-222 -149l222 -150l-74 -110l-205 141l6 -285h-139z" />
    <glyph glyph-name="plus" unicode="+" 
d="M430 178v475h-364v156h364v475h166v-475h365v-156h-365v-475h-166z" />
    <glyph glyph-name="comma" unicode="," horiz-adv-x="499" 
d="M188 -391l-82 65q40 50 67.5 99.5t41.5 101.5t14 98v27h-86v279h201v-267q0 -65 -9 -116.5t-28 -96.5q-21 -54 -51 -102t-68 -88z" />
    <glyph glyph-name="hyphen" unicode="-" horiz-adv-x="712" 
d="M117 449v186h465v-186h-465z" />
    <glyph glyph-name="hyphen" unicode="&#xad;" horiz-adv-x="712" 
d="M117 449v186h465v-186h-465z" />
    <glyph glyph-name="period" unicode="." horiz-adv-x="499" 
d="M141 0v276h203v-276h-203z" />
    <glyph glyph-name="slash" unicode="/" horiz-adv-x="463" 
d="M0 0l297 1544h152l-297 -1544h-152z" />
    <glyph glyph-name="zero" unicode="0" 
d="M512 -31q-114 0 -195.5 49.5t-134 148t-77.5 246.5t-25 345q0 196 25 343t77.5 245.5t134 148t195.5 49.5t196 -49.5t135 -148t78 -245.5t25 -343q0 -394 -103.5 -591.5t-330.5 -197.5zM512 121q98 0 155 90.5t75 242t18 306.5q0 153 -13.5 271.5t-43 198.5t-77 121.5
t-114.5 41.5q-100 0 -157 -91.5t-73 -240t-16 -301.5q0 -155 13 -274t42.5 -200t76 -123t114.5 -42z" />
    <glyph glyph-name="one" unicode="1" 
d="M487 0v1296q-53 -45 -136 -107t-128 -87l-73 133q72 47 137.5 97t120.5 98.5t88 82.5h168v-1513h-177z" />
    <glyph glyph-name="two" unicode="2" 
d="M82 0v63q0 113 43 216t113 185.5t139.5 144t105.5 93.5q84 73 136 142t75 139t23 135q0 88 -25 152t-76 93.5t-116 29.5q-60 0 -102.5 -24.5t-71.5 -67t-46.5 -100t-27.5 -122.5l-172 21q15 108 48.5 190.5t86.5 136.5q54 57 126 87t165 30q91 0 157 -24t104 -57.5
t60 -65.5q38 -53 58 -119.5t20 -159.5q0 -116 -42 -216t-102.5 -164.5t-113.5 -110.5q-92 -80 -156.5 -145.5t-113.5 -123.5q-38 -46 -60 -94.5t-30 -97.5h620v-166h-825z" />
    <glyph glyph-name="three" unicode="3" 
d="M500 -31q-116 0 -196 35.5t-131 96.5t-75.5 142t-29.5 173l176 20q8 -153 67.5 -233t180.5 -80q83 0 140 36t79 100.5t22 141.5q0 147 -70.5 221t-220.5 74v166q78 3 130.5 28t84.5 64t46 88.5t14 102.5q0 56 -13.5 106t-44.5 82q-26 29 -65 46.5t-94 17.5
q-59 0 -101 -22t-69.5 -59.5t-43.5 -88t-24 -107.5l-170 19q12 94 43.5 169.5t83.5 127.5t124 80t167 28q153 0 244.5 -66t119 -156t27.5 -167q0 -128 -58.5 -224.5t-183.5 -150.5q101 -20 162.5 -83t80 -141t18.5 -142q0 -98 -24.5 -180t-75.5 -141t-130.5 -91.5
t-189.5 -32.5z" />
    <glyph glyph-name="four" unicode="4" 
d="M625 0v340h-559v164l552 1009h177v-1021h129v-152h-129v-340h-170zM219 492h402v737z" />
    <glyph glyph-name="five" unicode="5" 
d="M492 -31q-94 0 -158.5 23.5t-100.5 55.5t-57 61q-35 45 -55 100.5t-31 107.5l166 43q10 -50 26.5 -93.5t42.5 -76t63.5 -51t90.5 -18.5q89 0 146 57t76.5 144t19.5 170q0 91 -15 162.5t-57 125.5q-28 37 -68 55.5t-96 18.5q-49 0 -92.5 -20t-71.5 -54t-47 -75l-157 26
l110 782h641v-161h-508l-61 -434q33 30 73.5 51t86 29t90.5 8q60 0 122.5 -22.5t114.5 -78.5q54 -60 87.5 -156.5t33.5 -242.5q0 -122 -27.5 -221t-80.5 -169t-130 -108.5t-177 -38.5z" />
    <glyph glyph-name="six" unicode="6" 
d="M530 -31q-121 0 -205.5 53.5t-137 150t-76 230.5t-23.5 295q0 423 122.5 634.5t348.5 211.5q107 0 182.5 -36.5t118.5 -103t64 -142.5l-166 -52q-16 51 -34 86t-46 58q-25 20 -55 29.5t-68 9.5q-87 0 -147 -66q-60 -65 -93 -198t-41 -320q53 93 129 133.5t162 40.5
q152 0 242 -88.5t114.5 -202t24.5 -205.5q0 -116 -27.5 -211.5t-80.5 -163.5t-130.5 -105.5t-177.5 -37.5zM524 115q86 0 143 55t76 138.5t19 164.5q0 126 -33 211.5t-86.5 117.5t-107.5 32q-63 0 -109.5 -30t-76.5 -80.5t-45 -117.5t-15 -141q0 -72 15 -135.5t44.5 -111
t73.5 -75.5t102 -28z" />
    <glyph glyph-name="seven" unicode="7" 
d="M248 0q30 200 76 382t113 354.5t141.5 318t158.5 286.5h-626v172h802v-180q-143 -233 -238 -453.5t-150 -443t-89 -436.5h-188z" />
    <glyph glyph-name="eight" unicode="8" 
d="M512 -31q-116 0 -201 34t-141 93t-83.5 139.5t-27.5 172.5t29 171t80.5 128.5t110.5 78.5q-97 60 -138 149t-41 193q0 88 24.5 164t75.5 132t128.5 88t183.5 32q151 0 249 -67t130.5 -164t32.5 -185q0 -104 -41 -193t-138 -149q85 -43 135.5 -108.5t67.5 -137.5t17 -132
q0 -92 -27.5 -172.5t-83.5 -139.5t-141 -93t-201 -34zM512 119q97 0 159 47t82.5 115t20.5 131q0 98 -36.5 168.5t-97.5 99.5t-128 29t-116 -22.5t-81.5 -62.5t-48.5 -94t-16 -118q0 -63 15.5 -116.5t48 -93t81.5 -61.5t117 -22zM512 848q87 0 142 44.5t73 108.5t18 123
q0 94 -31 159.5t-86 93.5t-116 28t-105 -21.5t-72.5 -59t-42 -89t-13.5 -111.5q0 -59 13.5 -109.5t42 -87.5t72.5 -58t105 -21z" />
    <glyph glyph-name="nine" unicode="9" 
d="M469 -31q-67 0 -125.5 15.5t-106 49.5t-82 86.5t-53.5 127.5l164 47q14 -48 32 -80t44 -55q25 -20 57.5 -29.5t69.5 -9.5q45 0 82.5 16t66.5 51q59 69 93 200.5t39 318.5q-38 -69 -91.5 -110.5t-105 -54t-94.5 -12.5q-108 0 -180.5 43t-116.5 113t-63 159t-19 181
q0 115 27 210.5t79.5 163.5t130 106t177.5 38q121 0 205.5 -53.5t137.5 -150t77 -230.5t24 -295q0 -424 -121 -635t-348 -211zM492 680q87 0 145.5 63t78 148.5t19.5 159.5q0 110 -33.5 194t-88 119t-113.5 35t-103.5 -25t-74.5 -71.5t-45 -112.5t-15 -148q0 -84 15 -151
t44.5 -114t72 -72t98.5 -25z" />
    <glyph glyph-name="colon" unicode=":" horiz-adv-x="499" 
d="M141 0v276h203v-276h-203zM141 805v276h203v-276h-203z" />
    <glyph glyph-name="semicolon" unicode=";" horiz-adv-x="499" 
d="M188 -391l-82 65q40 50 67.5 99.5t41.5 101.5t14 98v27h-86v279h201v-267q0 -65 -9 -116.5t-28 -96.5q-21 -54 -51 -102t-68 -88zM143 805v276h201v-276h-201z" />
    <glyph glyph-name="semicolon" unicode="&#x37e;" horiz-adv-x="499" 
d="M188 -391l-82 65q40 50 67.5 99.5t41.5 101.5t14 98v27h-86v279h201v-267q0 -65 -9 -116.5t-28 -96.5q-21 -54 -51 -102t-68 -88zM143 805v276h201v-276h-201z" />
    <glyph glyph-name="less" unicode="&#x3c;" 
d="M961 178l-895 471v164l895 471v-176l-717 -377l717 -377v-176z" />
    <glyph glyph-name="equal" unicode="=" 
d="M66 416v159h895v-159h-895zM66 887v160h895v-160h-895z" />
    <glyph glyph-name="greater" unicode="&#x3e;" 
d="M66 178v176l716 377l-716 377v176l895 -471v-164z" />
    <glyph glyph-name="question" unicode="?" horiz-adv-x="921" 
d="M309 0v279h199v-279h-199zM328 502v139q0 67 13.5 107.5t43.5 74.5q18 21 77.5 74t94.5 91t53.5 93t18.5 113q0 119 -49.5 178.5t-143.5 59.5q-74 0 -121.5 -44.5t-65 -103t-24.5 -108.5l-166 24q14 127 70 217t140 127t177 37q134 0 221 -62.5t114.5 -148.5t27.5 -160
q0 -95 -29.5 -168.5t-70 -121.5t-98 -101.5t-66.5 -62.5q-29 -31 -42.5 -62t-13.5 -76v-116h-161z" />
    <glyph glyph-name="at" unicode="@" horiz-adv-x="1734" 
d="M889 -51q-89 0 -169.5 11.5t-152.5 38t-137 69.5t-123 106q-48 51 -86.5 115.5t-66.5 140t-43 160.5t-15 178q0 186 62.5 339t169.5 265q83 87 180.5 139t189.5 69t164 17q139 0 251.5 -35.5t188.5 -88.5t125 -103q77 -84 123.5 -180t60 -179.5t13.5 -142.5
q0 -120 -29.5 -219.5t-85 -171t-134.5 -110.5t-179 -39q-72 0 -113 16.5t-63 44.5q-14 17 -22 39.5t-11 48.5q-44 -58 -92 -91.5t-97.5 -44.5t-95.5 -11q-67 0 -117.5 24.5t-85 67.5t-52 102.5t-17.5 130.5q0 97 27.5 188.5t62 151.5t58.5 88q37 47 87.5 83t102.5 52.5
t96 16.5q85 0 141.5 -33.5t88.5 -99.5l20 104h150l-119 -592q-8 -32 -8 -79q0 -16 3 -30.5t12 -25t24.5 -16.5t40.5 -6q60 0 109.5 29t85 82.5t54.5 129.5t19 170q0 107 -36.5 211.5t-121.5 194.5q-89 92 -201 142t-264 50q-134 0 -238 -48t-192 -138q-93 -97 -144.5 -225.5
t-51.5 -286.5q0 -149 37.5 -268.5t109.5 -206.5q45 -54 96 -94t112.5 -66.5t135 -39.5t162.5 -13q91 0 173 17t155 42l40 -125q-39 -15 -106.5 -31.5t-139.5 -25t-122 -8.5zM754 465q82 0 144 57t90 130.5t40 133.5q10 52 10 125q0 41 -10.5 80.5t-38.5 67.5
q-20 20 -46.5 31.5t-63.5 11.5q-48 0 -86 -20t-72 -54q-45 -45 -73 -110t-44 -138q-12 -62 -12 -118q0 -96 40 -146.5t122 -50.5z" />
    <glyph glyph-name="A" unicode="A" horiz-adv-x="1114" 
d="M0 0l444 1544h213l443 -1544h-191l-106 385h-531l-106 -385h-166zM313 541h449l-221 821z" />
    <glyph glyph-name="B" unicode="B" horiz-adv-x="1194" 
d="M135 0v1544h479q136 0 228 -44t131 -132.5t39 -196.5q0 -79 -19 -144.5t-59.5 -113.5t-89.5 -79q117 -47 172 -141t55 -240q0 -137 -39 -225t-105 -138.5t-153 -70t-184 -19.5h-455zM311 152h262q66 0 121 14.5t94.5 49t61.5 92t22 143.5q0 129 -47.5 196t-113 81.5
t-119.5 14.5h-281v-591zM311 895h252q77 0 137.5 26t89.5 84.5t29 137.5q0 133 -62.5 191.5t-183.5 58.5h-262v-498z" />
    <glyph glyph-name="C" unicode="C" horiz-adv-x="1194" 
d="M612 -31q-117 0 -212.5 44t-163 139.5t-104 245t-36.5 360.5q0 207 35.5 361t103 255t166 151t224.5 50q137 0 237.5 -57t156 -164.5t75.5 -237.5l-187 -35q-31 163 -98 249.5t-186 86.5q-98 0 -162.5 -51.5t-103 -141t-54.5 -211t-16 -261.5q0 -142 18.5 -257t58 -196.5
t101.5 -125.5t149 -44q109 0 177.5 65.5t95.5 159t37 176.5l186 -20q-20 -143 -62 -245.5t-105 -168t-146 -96.5t-185 -31z" />
    <glyph glyph-name="D" unicode="D" horiz-adv-x="1210" 
d="M135 0v1544h367q151 0 263.5 -45.5t186.5 -139.5t111 -238.5t37 -342.5q0 -395 -148.5 -586.5t-449.5 -191.5h-367zM317 158h189q111 0 188 43.5t125 124t69 195t21 257.5q0 142 -21 255t-68 191.5t-123 120t-187 41.5h-193v-1228z" />
    <glyph glyph-name="E" unicode="E" horiz-adv-x="1083" 
d="M135 0v1544h828v-162h-646v-516h611v-159h-611v-545h674v-162h-856z" />
    <glyph glyph-name="F" unicode="F" horiz-adv-x="1015" 
d="M135 0v1544h826v-162h-644v-508h576v-161h-576v-713h-182z" />
    <glyph glyph-name="G" unicode="G" horiz-adv-x="1228" 
d="M606 -31q-111 0 -205 44t-161.5 139t-105.5 244.5t-38 361.5q0 206 37 359.5t106 255t168 152t224 50.5q135 0 235 -50.5t155.5 -152t78.5 -227.5l-182 -39q-23 124 -68 194t-105.5 93.5t-117.5 23.5q-92 0 -156.5 -48.5t-105 -136t-59.5 -210t-19 -270.5q0 -149 20 -265
t61.5 -195.5t104 -121t148.5 -41.5q99 0 171.5 49t101 128t28.5 163v147h-168v152h348v-768h-121l-31 158q-59 -96 -145 -142.5t-199 -46.5z" />
    <glyph glyph-name="H" unicode="H" horiz-adv-x="1237" 
d="M135 0v1544h182v-645h588v645h182v-1544h-182v737h-588v-737h-182z" />
    <glyph glyph-name="I" unicode="I" horiz-adv-x="467" 
d="M135 0v1544h182v-1544h-182z" />
    <glyph glyph-name="J" unicode="J" horiz-adv-x="1013" 
d="M465 -31q-108 0 -183 34.5t-124 96.5t-73 147.5t-30 188.5l174 21q5 -82 20 -144t43 -103t69.5 -62t99.5 -21q83 0 138 36t76 109.5t21 163.5v1108h183v-1098q0 -236 -107.5 -356.5t-306.5 -120.5z" />
    <glyph glyph-name="K" unicode="K" horiz-adv-x="1122" 
d="M135 0v1544h182v-729l541 729h201l-422 -573l489 -971h-211l-405 817l-193 -258v-559h-182z" />
    <glyph glyph-name="L" unicode="L" horiz-adv-x="981" 
d="M135 0v1544h182v-1382h619v-162h-801z" />
    <glyph glyph-name="M" unicode="M" horiz-adv-x="1507" 
d="M135 0v1544h248l358 -1329l377 1329h240v-1544h-172v1257l-350 -1257h-193l-336 1257v-1257h-172z" />
    <glyph glyph-name="N" unicode="N" horiz-adv-x="1212" 
d="M135 0v1544h197l555 -1214v1214h176v-1544h-197l-555 1210v-1210h-176z" />
    <glyph glyph-name="O" unicode="O" horiz-adv-x="1302" 
d="M643 -31q-128 0 -229.5 49.5t-172 149t-108 250t-37.5 352.5q0 204 37.5 355t108 251t172 149.5t229.5 49.5q129 0 231 -49.5t172.5 -149.5t108 -251t37.5 -355q0 -202 -37.5 -352.5t-108 -250t-172.5 -149t-231 -49.5zM643 127q91 0 158 45t111.5 129t66.5 203t22 266
q0 149 -22 268.5t-66.5 203.5t-111.5 129.5t-158 45.5q-90 0 -157 -45.5t-111 -129.5t-66 -203.5t-22 -268.5q0 -147 22 -266t66 -203t111 -129t157 -45z" />
    <glyph glyph-name="P" unicode="P" horiz-adv-x="1104" 
d="M135 0v1544h455q111 0 192.5 -32t135 -92t79 -146.5t25.5 -194.5q0 -109 -29.5 -196t-89 -147.5t-148 -93t-206.5 -32.5h-234v-610h-180zM315 762h220q107 0 178 44.5t97 118.5t26 154q-2 155 -75 234.5t-218 79.5h-228v-631z" />
    <glyph glyph-name="Q" unicode="Q" horiz-adv-x="1302" 
d="M987 -221l-131 231q-48 -20 -101 -30.5t-112 -10.5q-128 0 -229.5 49.5t-172 149t-108 250t-37.5 352.5q0 204 37.5 355t108 251t172 149.5t229.5 49.5q129 0 231 -49.5t172.5 -149.5t108 -251t37.5 -355q0 -244 -54 -412.5t-157 -265.5l133 -237zM643 127q40 0 72 6.5
t61 20.5l-162 284l125 78l150 -262q40 51 66.5 141t36 190.5t9.5 184.5q0 149 -22 268.5t-66.5 203.5t-111.5 129.5t-158 45.5q-90 0 -157 -45.5t-111 -129.5t-66 -203.5t-22 -268.5q0 -147 22 -266t66 -203t111 -129t157 -45z" />
    <glyph glyph-name="R" unicode="R" horiz-adv-x="1151" 
d="M135 0v1544h483q157 0 256.5 -65t132.5 -171t33 -214q0 -93 -27.5 -180t-80.5 -146.5t-119 -89.5l262 -678h-207l-233 641h-37h-283v-641h-180zM315 793h265q60 0 109.5 17t85 54t54.5 94t19 138q0 158 -71.5 227.5t-207.5 69.5h-254v-600z" />
    <glyph glyph-name="S" unicode="S" horiz-adv-x="1114" 
d="M547 -31q-120 0 -205 31t-142 89t-90.5 140.5t-50.5 184.5l179 35q9 -62 26.5 -120t51 -103.5t88.5 -73t139 -27.5q103 0 169 39.5t87.5 101.5t21.5 123q0 106 -52 179.5t-175 111.5l-160 49q-90 28 -155 66.5t-107 90.5t-62 118.5t-20 150.5q0 139 64.5 242t166 140.5
t207.5 37.5q94 0 170 -21.5t133 -68.5t96.5 -120.5t61.5 -176.5l-170 -47q-12 54 -32.5 104.5t-54 89.5t-83 62.5t-119.5 23.5q-100 0 -161 -40.5t-80 -102t-19 -119.5q0 -103 57 -168.5t173 -99.5l178 -53q87 -26 147 -62.5t101 -87.5q84 -106 84 -282q0 -98 -27 -178.5
t-84 -138t-144.5 -89t-207.5 -31.5z" />
    <glyph glyph-name="T" unicode="T" horiz-adv-x="1075" 
d="M438 0v1382h-407v162h999v-162h-409v-1382h-183z" />
    <glyph glyph-name="U" unicode="U" horiz-adv-x="1192" 
d="M592 -37q-132 0 -222 40.5t-145.5 114t-79.5 175.5t-24 225v1026h182v-1026q0 -204 70.5 -297.5t218.5 -93.5q141 0 211.5 93.5t70.5 297.5v1026h183v-1026q0 -123 -24 -225t-79 -175.5t-143.5 -114t-218.5 -40.5z" />
    <glyph glyph-name="V" unicode="V" horiz-adv-x="1050" 
d="M408 0l-408 1544h182l340 -1319l338 1319h176l-407 -1544h-221z" />
    <glyph glyph-name="W" unicode="W" horiz-adv-x="1560" 
d="M295 0l-295 1544h176l242 -1286l250 1286h206l250 -1286l250 1286h172l-309 -1544h-217l-254 1272l-256 -1272h-215z" />
    <glyph glyph-name="X" unicode="X" horiz-adv-x="1018" 
d="M0 0l406 797l-373 747h194l279 -567l280 567h185l-373 -735l406 -809h-201l-305 627l-310 -627h-188z" />
    <glyph glyph-name="Y" unicode="Y" horiz-adv-x="1005" 
d="M403 0v641l-403 903h188l312 -704l311 704h180l-405 -901v-643h-183z" />
    <glyph glyph-name="Z" unicode="Z" horiz-adv-x="1034" 
d="M59 0v168l686 1214h-641v162h832v-168l-684 -1214h711v-162h-904z" />
    <glyph glyph-name="bracketleft" unicode="[" horiz-adv-x="594" 
d="M145 -393v1937h369v-141h-192v-1655h192v-141h-369z" />
    <glyph glyph-name="backslash" unicode="\" horiz-adv-x="463" 
d="M297 0l-297 1544h152l297 -1544h-152z" />
    <glyph glyph-name="bracketright" unicode="]" horiz-adv-x="594" 
d="M66 -393v141h192v1655h-192v141h366v-1937h-366z" />
    <glyph glyph-name="asciicircum" unicode="^" horiz-adv-x="997" 
d="M100 797l312 747h159l312 -747h-162l-229 551l-230 -551h-162z" />
    <glyph glyph-name="underscore" unicode="_" horiz-adv-x="1038" 
d="M0 -266v123h1024v-123h-1024z" />
    <glyph glyph-name="grave" unicode="`" horiz-adv-x="802" 
d="M418 1272l-195 272h180l158 -272h-143z" />
    <glyph glyph-name="a" unicode="a" horiz-adv-x="901" 
d="M348 -31q-67 0 -118.5 23t-87 64t-54 97t-18.5 121q0 128 48 207.5t124 113.5t153 50l211 45v86q0 71 -18.5 115t-57.5 62t-86 18q-61 0 -101.5 -25.5t-58.5 -68.5t-30 -84l-154 38q20 87 69.5 155t123.5 97t160 29q113 0 187.5 -39.5t105 -117.5t30.5 -169v-585
q0 -54 8 -107.5t19 -93.5h-166q-8 28 -10 41q-9 57 -9 88q-37 -65 -81 -101t-92.5 -47.5t-96.5 -11.5zM393 111q66 0 116.5 37t73.5 101t23 132v166l-170 -37q-97 -22 -144.5 -74.5t-47.5 -148.5q0 -93 40 -134.5t109 -41.5z" />
    <glyph glyph-name="b" unicode="b" horiz-adv-x="985" 
d="M532 -31q-81 0 -142 36.5t-103 121.5l-2 -127h-170v1544h176v-590q42 88 110.5 123t153.5 35q118 0 196.5 -76t109 -207t30.5 -272q0 -130 -20.5 -238t-64.5 -186t-112 -121t-162 -43zM498 113q75 0 123 53.5t67 155t19 217.5q0 211 -48 319.5t-157 108.5
q-59 0 -100 -32.5t-67 -90.5t-38 -138t-12 -174q0 -93 12 -170t37.5 -132.5t66 -86t97.5 -30.5z" />
    <glyph glyph-name="c" unicode="c" horiz-adv-x="893" 
d="M467 -31q-99 0 -172 37.5t-120.5 110.5t-71 179t-23.5 243q0 130 23.5 235.5t72.5 180.5t122.5 116t174.5 41q150 0 234.5 -81.5t109.5 -250.5l-168 -35q-14 86 -37 133t-61 66t-82 19q-80 0 -129 -61.5t-65.5 -160.5t-16.5 -200q0 -100 11 -178t36 -132t63.5 -82
t94.5 -28q65 0 106 32t60.5 89.5t29.5 117.5l170 -34q-37 -185 -130 -271t-232 -86z" />
    <glyph glyph-name="d" unicode="d" horiz-adv-x="985" 
d="M430 -31q-89 0 -154.5 41t-109 116.5t-65 182.5t-21.5 240q0 278 88.5 420.5t253.5 142.5q83 0 149 -36t109 -120v588h176v-1544h-170l-2 131q-42 -88 -106 -125t-148 -37zM471 113q82 0 133 66t66.5 165t15.5 193q0 93 -12 172t-38 136.5t-66.5 89.5t-98.5 32
q-105 0 -157 -105.5t-52 -322.5q0 -112 14 -192.5t40.5 -132.5t65.5 -76.5t89 -24.5z" />
    <glyph glyph-name="e" unicode="e" horiz-adv-x="946" 
d="M473 -31q-200 0 -296.5 146.5t-96.5 423.5q0 133 25 239.5t75 180.5t125 113.5t176 39.5q145 0 233.5 -75.5t117 -190t28.5 -223.5v-119h-602q2 -95 15 -167.5t38.5 -121.5t66 -73.5t97.5 -24.5q67 0 109.5 25t64 72.5t33.5 100.5l160 -43q-37 -154 -131 -228.5
t-238 -74.5zM258 643h424q-2 122 -27.5 196t-73.5 104t-104 30q-55 0 -95.5 -26.5t-67 -71.5t-40.5 -105t-16 -127z" />
    <glyph glyph-name="f" unicode="f" horiz-adv-x="532" 
d="M152 0v934h-125v147h125v181q0 88 18 146.5t53 92.5q34 32 78 48t96 16q51 0 85.5 -5.5t66.5 -13.5l-12 -145q-46 12 -91 12q-63 0 -90.5 -37.5t-27.5 -115.5v-179h190v-147h-190v-934h-176z" />
    <glyph glyph-name="g" unicode="g" horiz-adv-x="985" 
d="M461 -424q-97 0 -167 28.5t-118 76.5q-51 53 -76 118l142 68q12 -26 26 -48t33 -40q26 -26 62.5 -39.5t93.5 -13.5q69 0 116 23t72 67q19 32 27 73.5t8 87.5v166q-42 -81 -107 -117t-147 -36q-175 0 -260.5 145.5t-85.5 417.5q0 278 88.5 418.5t249.5 140.5
q86 0 153.5 -36.5t112.5 -127.5l2 133h170v-1077q0 -93 -18.5 -170.5t-65.5 -136.5q-46 -57 -120 -89t-191 -32zM471 133q83 0 133.5 62.5t66 159t15.5 190.5q0 148 -28 246.5t-79 138t-108 39.5q-104 0 -156.5 -102.5t-52.5 -317.5q0 -113 14 -192t40.5 -129t65.5 -72.5
t89 -22.5z" />
    <glyph glyph-name="h" unicode="h" horiz-adv-x="968" 
d="M115 0v1544h174v-583q28 49 68.5 84t93 51t106.5 16q60 0 111.5 -19t85.5 -51q42 -40 64 -99t22 -150v-793h-176v745q0 56 -10 102.5t-38 74.5q-18 20 -45 30.5t-65 10.5q-85 0 -137.5 -72t-65 -153.5t-12.5 -141.5v-596h-176z" />
    <glyph glyph-name="i" unicode="i" horiz-adv-x="420" 
d="M115 0v1081h176v-1081h-176zM115 1317v227h176v-227h-176z" />
    <glyph glyph-name="j" unicode="j" horiz-adv-x="397" 
d="M47 -424q-54 0 -93 6t-73 19l15 145q48 -16 100 -16q23 0 42 5t32 19q30 31 30 111v1216h176v-1247q0 -96 -34.5 -156t-89.5 -81t-105 -21zM100 1319v225h176v-225h-176z" />
    <glyph glyph-name="k" unicode="k" horiz-adv-x="868" 
d="M115 0v1544h176v-878l323 415h201l-276 -348l321 -733h-196l-250 588l-123 -156v-432h-176z" />
    <glyph glyph-name="l" unicode="l" horiz-adv-x="420" 
d="M115 0v1544h176v-1544h-176z" />
    <glyph glyph-name="m" unicode="m" horiz-adv-x="1478" 
d="M115 0v1081h168l2 -135q26 53 67 92.5t92 56.5t103 17q60 0 108 -19t80 -53q39 -38 62 -102q38 78 107.5 126t172.5 48q60 0 107.5 -19t81.5 -51q42 -40 64 -99t22 -150v-793h-176v745q0 56 -9 102.5t-37 74.5q-18 20 -41 30.5t-61 10.5q-59 0 -98.5 -35t-63.5 -88.5
t-34.5 -118.5t-10.5 -125v-596h-176v745q0 56 -8.5 102.5t-36.5 74.5q-19 20 -41.5 30.5t-60.5 10.5q-59 0 -98.5 -35t-63.5 -88.5t-34.5 -118.5t-10.5 -125v-596h-176z" />
    <glyph glyph-name="n" unicode="n" horiz-adv-x="968" 
d="M115 0v1081h168l4 -135q27 55 68 93t94 55.5t108 17.5q60 0 111.5 -19t85.5 -51q42 -40 64 -99t22 -150v-793h-176v745q0 56 -10 102.5t-38 74.5q-18 20 -45 30.5t-65 10.5q-85 0 -137.5 -72t-65 -153.5t-12.5 -141.5v-596h-176z" />
    <glyph glyph-name="o" unicode="o" horiz-adv-x="975" 
d="M479 -31q-102 0 -177 40.5t-124.5 115t-73.5 180t-24 236.5q0 130 24 236t73 180t124 114.5t178 40.5t179 -40.5t125.5 -114.5t73.5 -180t24 -236q0 -131 -24 -236.5t-73.5 -180t-125.5 -115t-179 -40.5zM479 119q84 0 136 60.5t68.5 161t16.5 200.5q0 155 -29.5 251.5
t-82 133.5t-109.5 37q-58 0 -100 -28.5t-69 -82.5t-39.5 -132.5t-12.5 -178.5t12.5 -178.5t39.5 -132.5t69 -82.5t100 -28.5z" />
    <glyph glyph-name="p" unicode="p" horiz-adv-x="985" 
d="M115 -393v1474h170l2 -135q43 91 111.5 128.5t156.5 37.5q118 0 196.5 -76t109 -207t30.5 -272q0 -129 -20.5 -237t-64.5 -186t-112 -121.5t-162 -43.5q-80 0 -140.5 36.5t-100.5 115.5v-514h-176zM496 113q75 0 124 55t68 155t19 216q0 213 -48 321.5t-157 108.5
q-59 0 -100 -32.5t-67 -90.5t-38 -138.5t-12 -175.5q0 -92 12 -169t37.5 -132.5t65.5 -86.5t96 -31z" />
    <glyph glyph-name="q" unicode="q" horiz-adv-x="985" 
d="M680 -393v516q-42 -85 -105.5 -119.5t-144.5 -34.5q-89 0 -154.5 41t-109 116.5t-65 182.5t-21.5 240q0 280 88.5 421.5t253.5 141.5q83 0 150 -36.5t112 -127.5l2 133h170v-1474h-176zM471 113q82 0 133 66t66.5 165t15.5 193q0 146 -28 247t-78.5 143t-108.5 42
q-209 0 -209 -430q0 -112 14 -192.5t40.5 -132.5t65.5 -76.5t89 -24.5z" />
    <glyph glyph-name="r" unicode="r" horiz-adv-x="604" 
d="M115 0v1081h172l4 -168q9 29 26 56t35 49q32 38 71 56t77 18q54 0 90 -11l-15 -157q-30 6 -86 6q-27 0 -54 -10t-50 -33q-42 -44 -68 -126.5t-26 -213.5v-547h-176z" />
    <glyph glyph-name="s" unicode="s" horiz-adv-x="843" 
d="M408 -31q-88 0 -152 23.5t-106 66.5q-41 41 -68.5 100.5t-36.5 127.5l158 35q11 -51 25 -92.5t42 -69.5q22 -23 52.5 -35t76.5 -12q91 0 131.5 43t40.5 120q0 55 -17 90t-51 56.5t-73 34.5l-117 39q-123 42 -181 118.5t-58 186.5q0 68 21 125t62.5 98.5t102 64.5
t139.5 23q74 0 134 -19.5t100 -57.5t63 -83q28 -55 37 -114l-158 -37q-11 48 -26 78.5t-37 52.5q-17 17 -44.5 28t-66.5 11q-74 0 -115.5 -41t-41.5 -119q0 -65 34 -104t111 -64l125 -39q125 -38 179.5 -117.5t54.5 -197.5q0 -105 -49 -182.5t-128 -107.5t-163 -30z" />
    <glyph glyph-name="t" unicode="t" horiz-adv-x="585" 
d="M379 -20q-105 0 -160 62.5t-55 190.5v701h-113v147h113v308h176v-308h178v-147h-178v-674q0 -71 22.5 -100t73.5 -29q55 0 94 12l13 -145q-29 -9 -69.5 -13.5t-94.5 -4.5z" />
    <glyph glyph-name="u" unicode="u" horiz-adv-x="968" 
d="M395 -31q-59 0 -107.5 17t-89 55t-62 100.5t-21.5 159.5v780h176v-741q0 -57 10 -104t39 -76q19 -17 45 -27t64 -10q83 0 134 66t66 151t15 145v596h176v-1081h-168l-4 135q-28 -56 -69.5 -94.5t-94.5 -55t-109 -16.5z" />
    <glyph glyph-name="v" unicode="v" horiz-adv-x="796" 
d="M293 0l-293 1081h176l217 -872l217 872h172l-293 -1081h-196z" />
    <glyph glyph-name="w" unicode="w" horiz-adv-x="1251" 
d="M244 0l-244 1081h172l178 -868l178 868h189l174 -870l178 870h168l-244 -1081h-200l-175 842l-174 -842h-200z" />
    <glyph glyph-name="x" unicode="x" horiz-adv-x="774" 
d="M-4 0l295 555l-275 526h187l180 -366l182 366h174l-270 -514l293 -567h-187l-200 406l-203 -406h-176z" />
    <glyph glyph-name="y" unicode="y" horiz-adv-x="837" 
d="M211 -424q-39 0 -78 6.5t-84 22.5l33 141q51 -20 96 -20q25 0 44 6.5t34 21.5q17 17 28 41t19 53l43 152l-346 1081h174l254 -827l223 827h172l-362 -1269q-17 -57 -40 -104t-52 -75q-29 -27 -70.5 -42t-87.5 -15z" />
    <glyph glyph-name="z" unicode="z" horiz-adv-x="794" 
d="M59 0v137l461 797h-438v147h623v-137l-461 -797h477v-147h-662z" />
    <glyph glyph-name="braceleft" unicode="{" horiz-adv-x="792" 
d="M481 -393q-69 0 -113.5 30.5t-61.5 90.5t-17 131v465q0 75 -34 113.5t-73.5 49t-62.5 15.5v147q57 9 91.5 25t56.5 56.5t22 94.5v467q0 72 14 120.5t39.5 78t61 41.5t77.5 12h178v-141h-90q-50 0 -74.5 -28t-27 -66t-2.5 -72v-446q0 -79 -24.5 -128t-59 -66t-62.5 -22
q48 -9 82 -35.5t49 -75t15 -106.5v-444q0 -61 8 -96t34 -52.5t62 -17.5h90v-141h-178z" />
    <glyph glyph-name="bar" unicode="|" horiz-adv-x="493" 
d="M164 0v1544h151v-1544h-151z" />
    <glyph glyph-name="braceright" unicode="}" horiz-adv-x="792" 
d="M119 -393v141h92q49 0 71.5 27t26.5 66t4 73v444q0 79 23.5 128t58.5 66.5t64 22.5q-29 5 -55 18t-46.5 38t-32.5 64t-12 96v446q0 61 -8 95.5t-33.5 52.5t-60.5 18h-92v141h180q68 0 111.5 -29.5t62.5 -90t19 -132.5v-467q0 -54 17 -87t42.5 -51.5t54.5 -26t53 -11.5
v-147q-60 -13 -93 -28.5t-53.5 -55t-20.5 -94.5v-465q0 -102 -31 -161.5t-75.5 -75t-86.5 -15.5h-180z" />
    <glyph glyph-name="asciitilde" unicode="~" horiz-adv-x="1265" 
d="M868 422q-41 0 -75.5 9t-66 26t-61.5 41.5t-61 56.5l-63 66q-53 54 -83.5 77t-70.5 23q-44 0 -75.5 -34.5t-47.5 -98t-26 -137.5l-142 24q18 155 66 249t108 123.5t115 29.5q71 0 126.5 -27t117.5 -90l86 -90q57 -62 82.5 -77t70.5 -15q46 0 76 32.5t46.5 97.5t25.5 140
l141 -27q-12 -107 -38 -183t-63.5 -124t-85 -70t-102.5 -22z" />
    <glyph glyph-name="Adieresis" unicode="&#xc4;" horiz-adv-x="1114" 
d="M0 0l444 1544h213l443 -1544h-191l-106 385h-531l-106 -385h-166zM313 541h449l-221 821zM272 1698v233h179v-233h-179zM649 1698v233h178v-233h-178z" />
    <glyph glyph-name="Aring" unicode="&#xc5;" horiz-adv-x="1114" 
d="M0 0h166l106 385h531l106 -385h191l-425 1482q28 15 48 37q29 31 42.5 72t13.5 88t-18 98t-71.5 88t-138.5 37q-57 0 -109 -22.5t-83 -74.5t-31 -126q0 -47 13.5 -88t41.5 -72q19 -20 43 -35zM313 541l228 821l221 -821h-449zM551 1546q-31 0 -53.5 10.5t-37.5 29
t-22.5 42.5t-7.5 51q0 26 8.5 55t38 52.5t74.5 23.5q31 0 61 -14.5t46 -44.5t16 -72q0 -27 -9.5 -59t-39.5 -53t-74 -21z" />
    <glyph glyph-name="Ccedilla" unicode="&#xc7;" horiz-adv-x="1194" 
d="M612 -31q-117 0 -212.5 44t-163 139.5t-104 245t-36.5 360.5q0 207 35.5 361t103 255t166 151t224.5 50q137 0 237.5 -57t156 -164.5t75.5 -237.5l-187 -35q-31 163 -98 249.5t-186 86.5q-98 0 -162.5 -51.5t-103 -141t-54.5 -211t-16 -261.5q0 -142 18.5 -257t58 -196.5
t101.5 -125.5t149 -44q109 0 177.5 65.5t95.5 159t37 176.5l186 -20q-20 -143 -62 -245.5t-105 -168t-146 -96.5t-185 -31zM375 -393l168 272h135l-135 -272h-168z" />
    <glyph glyph-name="Eacute" unicode="&#xc9;" horiz-adv-x="1083" 
d="M135 0v1544h828v-162h-646v-516h611v-159h-611v-545h674v-162h-856zM477 1659l158 272h180l-194 -272h-144z" />
    <glyph glyph-name="Ntilde" unicode="&#xd1;" horiz-adv-x="1212" 
d="M135 0v1544h197l555 -1214v1214h176v-1544h-197l-555 1210v-1210h-176zM756 1671q-43 0 -73.5 10.5t-78.5 42.5l-47 31q-20 14 -39.5 22.5t-42.5 8.5q-30 0 -50 -27t-31 -69l-105 28q13 79 46 129t66.5 64t61.5 14q68 0 144 -49l57 -37q51 -31 84 -31q28 0 46.5 24
t29.5 77l106 -29q-10 -58 -28 -98t-41.5 -64.5t-50.5 -35.5t-54 -11z" />
    <glyph glyph-name="Odieresis" unicode="&#xd6;" horiz-adv-x="1302" 
d="M643 -31q-128 0 -229.5 49.5t-172 149t-108 250t-37.5 352.5q0 204 37.5 355t108 251t172 149.5t229.5 49.5q129 0 231 -49.5t172.5 -149.5t108 -251t37.5 -355q0 -202 -37.5 -352.5t-108 -250t-172.5 -149t-231 -49.5zM643 127q91 0 158 45t111.5 129t66.5 203t22 266
q0 149 -22 268.5t-66.5 203.5t-111.5 129.5t-158 45.5q-90 0 -157 -45.5t-111 -129.5t-66 -203.5t-22 -268.5q0 -147 22 -266t66 -203t111 -129t157 -45zM362 1698v233h179v-233h-179zM739 1698v233h178v-233h-178z" />
    <glyph glyph-name="Udieresis" unicode="&#xdc;" horiz-adv-x="1192" 
d="M592 -37q-132 0 -222 40.5t-145.5 114t-79.5 175.5t-24 225v1026h182v-1026q0 -204 70.5 -297.5t218.5 -93.5q141 0 211.5 93.5t70.5 297.5v1026h183v-1026q0 -123 -24 -225t-79 -175.5t-143.5 -114t-218.5 -40.5zM307 1698v233h179v-233h-179zM684 1698v233h178v-233
h-178z" />
    <glyph glyph-name="aacute" unicode="&#xe1;" horiz-adv-x="901" 
d="M348 -31q-67 0 -118.5 23t-87 64t-54 97t-18.5 121q0 128 48 207.5t124 113.5t153 50l211 45v86q0 71 -18.5 115t-57.5 62t-86 18q-61 0 -101.5 -25.5t-58.5 -68.5t-30 -84l-154 38q20 87 69.5 155t123.5 97t160 29q113 0 187.5 -39.5t105 -117.5t30.5 -169v-585
q0 -54 8 -107.5t19 -93.5h-166q-8 28 -10 41q-9 57 -9 88q-37 -65 -81 -101t-92.5 -47.5t-96.5 -11.5zM393 111q66 0 116.5 37t73.5 101t23 132v166l-170 -37q-97 -22 -144.5 -74.5t-47.5 -148.5q0 -93 40 -134.5t109 -41.5zM391 1272l158 272h180l-194 -272h-144z" />
    <glyph glyph-name="agrave" unicode="&#xe0;" horiz-adv-x="901" 
d="M348 -31q-67 0 -118.5 23t-87 64t-54 97t-18.5 121q0 128 48 207.5t124 113.5t153 50l211 45v86q0 71 -18.5 115t-57.5 62t-86 18q-61 0 -101.5 -25.5t-58.5 -68.5t-30 -84l-154 38q20 87 69.5 155t123.5 97t160 29q113 0 187.5 -39.5t105 -117.5t30.5 -169v-585
q0 -54 8 -107.5t19 -93.5h-166q-8 28 -10 41q-9 57 -9 88q-37 -65 -81 -101t-92.5 -47.5t-96.5 -11.5zM393 111q66 0 116.5 37t73.5 101t23 132v166l-170 -37q-97 -22 -144.5 -74.5t-47.5 -148.5q0 -93 40 -134.5t109 -41.5zM432 1272l-195 272h180l158 -272h-143z" />
    <glyph glyph-name="acircumflex" unicode="&#xe2;" horiz-adv-x="901" 
d="M348 -31q-67 0 -118.5 23t-87 64t-54 97t-18.5 121q0 128 48 207.5t124 113.5t153 50l211 45v86q0 71 -18.5 115t-57.5 62t-86 18q-61 0 -101.5 -25.5t-58.5 -68.5t-30 -84l-154 38q20 87 69.5 155t123.5 97t160 29q113 0 187.5 -39.5t105 -117.5t30.5 -169v-585
q0 -54 8 -107.5t19 -93.5h-166q-8 28 -10 41q-9 57 -9 88q-37 -65 -81 -101t-92.5 -47.5t-96.5 -11.5zM393 111q66 0 116.5 37t73.5 101t23 132v166l-170 -37q-97 -22 -144.5 -74.5t-47.5 -148.5q0 -93 40 -134.5t109 -41.5zM162 1272l209 272h166l209 -272h-152l-141 162
l-142 -162h-149z" />
    <glyph glyph-name="adieresis" unicode="&#xe4;" horiz-adv-x="901" 
d="M348 -31q-67 0 -118.5 23t-87 64t-54 97t-18.5 121q0 128 48 207.5t124 113.5t153 50l211 45v86q0 71 -18.5 115t-57.5 62t-86 18q-61 0 -101.5 -25.5t-58.5 -68.5t-30 -84l-154 38q20 87 69.5 155t123.5 97t160 29q113 0 187.5 -39.5t105 -117.5t30.5 -169v-585
q0 -54 8 -107.5t19 -93.5h-166q-8 28 -10 41q-9 57 -9 88q-37 -65 -81 -101t-92.5 -47.5t-96.5 -11.5zM393 111q66 0 116.5 37t73.5 101t23 132v166l-170 -37q-97 -22 -144.5 -74.5t-47.5 -148.5q0 -93 40 -134.5t109 -41.5zM188 1311v233h179v-233h-179zM565 1311v233h178
v-233h-178z" />
    <glyph glyph-name="atilde" unicode="&#xe3;" horiz-adv-x="901" 
d="M348 -31q-67 0 -118.5 23t-87 64t-54 97t-18.5 121q0 128 48 207.5t124 113.5t153 50l211 45v86q0 71 -18.5 115t-57.5 62t-86 18q-61 0 -101.5 -25.5t-58.5 -68.5t-30 -84l-154 38q20 87 69.5 155t123.5 97t160 29q113 0 187.5 -39.5t105 -117.5t30.5 -169v-585
q0 -54 8 -107.5t19 -93.5h-166q-8 28 -10 41q-9 57 -9 88q-37 -65 -81 -101t-92.5 -47.5t-96.5 -11.5zM393 111q66 0 116.5 37t73.5 101t23 132v166l-170 -37q-97 -22 -144.5 -74.5t-47.5 -148.5q0 -93 40 -134.5t109 -41.5zM604 1284q-43 0 -73.5 10.5t-78.5 42.5l-47 31
q-20 14 -39.5 22.5t-42.5 8.5q-30 0 -50 -27t-31 -69l-105 28q13 79 46 129t66.5 64t61.5 14q68 0 144 -49l57 -37q51 -31 84 -31q28 0 46.5 24t29.5 77l106 -29q-10 -58 -28 -98t-41.5 -64.5t-50.5 -35.5t-54 -11z" />
    <glyph glyph-name="aring" unicode="&#xe5;" horiz-adv-x="901" 
d="M348 -31q-67 0 -118.5 23t-87 64t-54 97t-18.5 121q0 128 48 207.5t124 113.5t153 50l211 45v86q0 71 -18.5 115t-57.5 62t-86 18q-61 0 -101.5 -25.5t-58.5 -68.5t-30 -84l-154 38q20 87 69.5 155t123.5 97t160 29q113 0 187.5 -39.5t105 -117.5t30.5 -169v-585
q0 -54 8 -107.5t19 -93.5h-166q-8 28 -10 41q-9 57 -9 88q-37 -65 -81 -101t-92.5 -47.5t-96.5 -11.5zM393 111q66 0 116.5 37t73.5 101t23 132v166l-170 -37q-97 -22 -144.5 -74.5t-47.5 -148.5q0 -93 40 -134.5t109 -41.5zM479 1268q-57 0 -98.5 17.5t-69.5 48t-41.5 71.5
t-13.5 88q0 74 31 126t83 74.5t109 22.5q85 0 138.5 -37t71.5 -88t18 -98t-13.5 -88t-42 -71.5t-71.5 -48t-101 -17.5zM479 1360q44 0 74 21t39.5 53t9.5 59q0 42 -16 72t-46 44.5t-61 14.5q-45 0 -74.5 -23.5t-38 -52.5t-8.5 -55q0 -27 7.5 -51t22.5 -42.5t37.5 -29
t53.5 -10.5z" />
    <glyph glyph-name="ccedilla" unicode="&#xe7;" horiz-adv-x="893" 
d="M467 -31q-99 0 -172 37.5t-120.5 110.5t-71 179t-23.5 243q0 130 23.5 235.5t72.5 180.5t122.5 116t174.5 41q150 0 234.5 -81.5t109.5 -250.5l-168 -35q-14 86 -37 133t-61 66t-82 19q-80 0 -129 -61.5t-65.5 -160.5t-16.5 -200q0 -100 11 -178t36 -132t63.5 -82
t94.5 -28q65 0 106 32t60.5 89.5t29.5 117.5l170 -34q-37 -185 -130 -271t-232 -86zM246 -393l168 272h135l-135 -272h-168z" />
    <glyph glyph-name="eacute" unicode="&#xe9;" horiz-adv-x="946" 
d="M473 -31q-200 0 -296.5 146.5t-96.5 423.5q0 133 25 239.5t75 180.5t125 113.5t176 39.5q145 0 233.5 -75.5t117 -190t28.5 -223.5v-119h-602q2 -95 15 -167.5t38.5 -121.5t66 -73.5t97.5 -24.5q67 0 109.5 25t64 72.5t33.5 100.5l160 -43q-37 -154 -131 -228.5
t-238 -74.5zM258 643h424q-2 122 -27.5 196t-73.5 104t-104 30q-55 0 -95.5 -26.5t-67 -71.5t-40.5 -105t-16 -127zM400 1272l158 272h180l-194 -272h-144z" />
    <glyph glyph-name="egrave" unicode="&#xe8;" horiz-adv-x="946" 
d="M473 -31q-200 0 -296.5 146.5t-96.5 423.5q0 133 25 239.5t75 180.5t125 113.5t176 39.5q145 0 233.5 -75.5t117 -190t28.5 -223.5v-119h-602q2 -95 15 -167.5t38.5 -121.5t66 -73.5t97.5 -24.5q67 0 109.5 25t64 72.5t33.5 100.5l160 -43q-37 -154 -131 -228.5
t-238 -74.5zM258 643h424q-2 122 -27.5 196t-73.5 104t-104 30q-55 0 -95.5 -26.5t-67 -71.5t-40.5 -105t-16 -127zM453 1272l-195 272h180l158 -272h-143z" />
    <glyph glyph-name="ecircumflex" unicode="&#xea;" horiz-adv-x="946" 
d="M473 -31q-200 0 -296.5 146.5t-96.5 423.5q0 133 25 239.5t75 180.5t125 113.5t176 39.5q145 0 233.5 -75.5t117 -190t28.5 -223.5v-119h-602q2 -95 15 -167.5t38.5 -121.5t66 -73.5t97.5 -24.5q67 0 109.5 25t64 72.5t33.5 100.5l160 -43q-37 -154 -131 -228.5
t-238 -74.5zM258 643h424q-2 122 -27.5 196t-73.5 104t-104 30q-55 0 -95.5 -26.5t-67 -71.5t-40.5 -105t-16 -127zM188 1272l209 272h166l209 -272h-152l-141 162l-142 -162h-149z" />
    <glyph glyph-name="edieresis" unicode="&#xeb;" horiz-adv-x="946" 
d="M473 -31q-200 0 -296.5 146.5t-96.5 423.5q0 133 25 239.5t75 180.5t125 113.5t176 39.5q145 0 233.5 -75.5t117 -190t28.5 -223.5v-119h-602q2 -95 15 -167.5t38.5 -121.5t66 -73.5t97.5 -24.5q67 0 109.5 25t64 72.5t33.5 100.5l160 -43q-37 -154 -131 -228.5
t-238 -74.5zM258 643h424q-2 122 -27.5 196t-73.5 104t-104 30q-55 0 -95.5 -26.5t-67 -71.5t-40.5 -105t-16 -127zM208 1311v233h179v-233h-179zM585 1311v233h178v-233h-178z" />
    <glyph glyph-name="iacute" unicode="&#xed;" horiz-adv-x="420" 
d="M115 0v1081h176v-1081h-176zM130 1272l158 272h180l-194 -272h-144z" />
    <glyph glyph-name="igrave" unicode="&#xec;" horiz-adv-x="420" 
d="M115 0v1081h176v-1081h-176zM138 1272l-195 272h180l158 -272h-143z" />
    <glyph glyph-name="icircumflex" unicode="&#xee;" horiz-adv-x="420" 
d="M115 0v1081h176v-1081h-176zM-85 1272l209 272h166l209 -272h-152l-141 162l-142 -162h-149z" />
    <glyph glyph-name="idieresis" unicode="&#xef;" horiz-adv-x="420" 
d="M115 0v1081h176v-1081h-176zM-71 1311v233h179v-233h-179zM306 1311v233h178v-233h-178z" />
    <glyph glyph-name="ntilde" unicode="&#xf1;" horiz-adv-x="968" 
d="M115 0v1081h168l4 -135q27 55 68 93t94 55.5t108 17.5q60 0 111.5 -19t85.5 -51q42 -40 64 -99t22 -150v-793h-176v745q0 56 -10 102.5t-38 74.5q-18 20 -45 30.5t-65 10.5q-85 0 -137.5 -72t-65 -153.5t-12.5 -141.5v-596h-176zM643 1284q-43 0 -73.5 10.5t-78.5 42.5
l-47 31q-20 14 -39.5 22.5t-42.5 8.5q-30 0 -50 -27t-31 -69l-105 28q13 79 46 129t66.5 64t61.5 14q68 0 144 -49l57 -37q51 -31 84 -31q28 0 46.5 24t29.5 77l106 -29q-10 -58 -28 -98t-41.5 -64.5t-50.5 -35.5t-54 -11z" />
    <glyph glyph-name="oacute" unicode="&#xf3;" horiz-adv-x="975" 
d="M479 -31q-102 0 -177 40.5t-124.5 115t-73.5 180t-24 236.5q0 130 24 236t73 180t124 114.5t178 40.5t179 -40.5t125.5 -114.5t73.5 -180t24 -236q0 -131 -24 -236.5t-73.5 -180t-125.5 -115t-179 -40.5zM479 119q84 0 136 60.5t68.5 161t16.5 200.5q0 155 -29.5 251.5
t-82 133.5t-109.5 37q-58 0 -100 -28.5t-69 -82.5t-39.5 -132.5t-12.5 -178.5t12.5 -178.5t39.5 -132.5t69 -82.5t100 -28.5zM415 1272l158 272h180l-194 -272h-144z" />
    <glyph glyph-name="ograve" unicode="&#xf2;" horiz-adv-x="975" 
d="M479 -31q-102 0 -177 40.5t-124.5 115t-73.5 180t-24 236.5q0 130 24 236t73 180t124 114.5t178 40.5t179 -40.5t125.5 -114.5t73.5 -180t24 -236q0 -131 -24 -236.5t-73.5 -180t-125.5 -115t-179 -40.5zM479 119q84 0 136 60.5t68.5 161t16.5 200.5q0 155 -29.5 251.5
t-82 133.5t-109.5 37q-58 0 -100 -28.5t-69 -82.5t-39.5 -132.5t-12.5 -178.5t12.5 -178.5t39.5 -132.5t69 -82.5t100 -28.5zM445 1272l-195 272h180l158 -272h-143z" />
    <glyph glyph-name="ocircumflex" unicode="&#xf4;" horiz-adv-x="975" 
d="M479 -31q-102 0 -177 40.5t-124.5 115t-73.5 180t-24 236.5q0 130 24 236t73 180t124 114.5t178 40.5t179 -40.5t125.5 -114.5t73.5 -180t24 -236q0 -131 -24 -236.5t-73.5 -180t-125.5 -115t-179 -40.5zM479 119q84 0 136 60.5t68.5 161t16.5 200.5q0 155 -29.5 251.5
t-82 133.5t-109.5 37q-58 0 -100 -28.5t-69 -82.5t-39.5 -132.5t-12.5 -178.5t12.5 -178.5t39.5 -132.5t69 -82.5t100 -28.5zM197 1272l209 272h166l209 -272h-152l-141 162l-142 -162h-149z" />
    <glyph glyph-name="odieresis" unicode="&#xf6;" horiz-adv-x="975" 
d="M479 -31q-102 0 -177 40.5t-124.5 115t-73.5 180t-24 236.5q0 130 24 236t73 180t124 114.5t178 40.5t179 -40.5t125.5 -114.5t73.5 -180t24 -236q0 -131 -24 -236.5t-73.5 -180t-125.5 -115t-179 -40.5zM479 119q84 0 136 60.5t68.5 161t16.5 200.5q0 155 -29.5 251.5
t-82 133.5t-109.5 37q-58 0 -100 -28.5t-69 -82.5t-39.5 -132.5t-12.5 -178.5t12.5 -178.5t39.5 -132.5t69 -82.5t100 -28.5zM204 1311v233h179v-233h-179zM581 1311v233h178v-233h-178z" />
    <glyph glyph-name="otilde" unicode="&#xf5;" horiz-adv-x="975" 
d="M479 -31q-102 0 -177 40.5t-124.5 115t-73.5 180t-24 236.5q0 130 24 236t73 180t124 114.5t178 40.5t179 -40.5t125.5 -114.5t73.5 -180t24 -236q0 -131 -24 -236.5t-73.5 -180t-125.5 -115t-179 -40.5zM479 119q84 0 136 60.5t68.5 161t16.5 200.5q0 155 -29.5 251.5
t-82 133.5t-109.5 37q-58 0 -100 -28.5t-69 -82.5t-39.5 -132.5t-12.5 -178.5t12.5 -178.5t39.5 -132.5t69 -82.5t100 -28.5zM643 1284q-43 0 -73.5 10.5t-78.5 42.5l-47 31q-20 14 -39.5 22.5t-42.5 8.5q-30 0 -50 -27t-31 -69l-105 28q13 79 46 129t66.5 64t61.5 14
q68 0 144 -49l57 -37q51 -31 84 -31q28 0 46.5 24t29.5 77l106 -29q-10 -58 -28 -98t-41.5 -64.5t-50.5 -35.5t-54 -11z" />
    <glyph glyph-name="uacute" unicode="&#xfa;" horiz-adv-x="968" 
d="M395 -31q-59 0 -107.5 17t-89 55t-62 100.5t-21.5 159.5v780h176v-741q0 -57 10 -104t39 -76q19 -17 45 -27t64 -10q83 0 134 66t66 151t15 145v596h176v-1081h-168l-4 135q-28 -56 -69.5 -94.5t-94.5 -55t-109 -16.5zM409 1272l158 272h180l-194 -272h-144z" />
    <glyph glyph-name="ugrave" unicode="&#xf9;" horiz-adv-x="968" 
d="M395 -31q-59 0 -107.5 17t-89 55t-62 100.5t-21.5 159.5v780h176v-741q0 -57 10 -104t39 -76q19 -17 45 -27t64 -10q83 0 134 66t66 151t15 145v596h176v-1081h-168l-4 135q-28 -56 -69.5 -94.5t-94.5 -55t-109 -16.5zM438 1272l-195 272h180l158 -272h-143z" />
    <glyph glyph-name="ucircumflex" unicode="&#xfb;" horiz-adv-x="968" 
d="M395 -31q-59 0 -107.5 17t-89 55t-62 100.5t-21.5 159.5v780h176v-741q0 -57 10 -104t39 -76q19 -17 45 -27t64 -10q83 0 134 66t66 151t15 145v596h176v-1081h-168l-4 135q-28 -56 -69.5 -94.5t-94.5 -55t-109 -16.5zM182 1272l209 272h166l209 -272h-152l-141 162
l-142 -162h-149z" />
    <glyph glyph-name="udieresis" unicode="&#xfc;" horiz-adv-x="968" 
d="M395 -31q-59 0 -107.5 17t-89 55t-62 100.5t-21.5 159.5v780h176v-741q0 -57 10 -104t39 -76q19 -17 45 -27t64 -10q83 0 134 66t66 151t15 145v596h176v-1081h-168l-4 135q-28 -56 -69.5 -94.5t-94.5 -55t-109 -16.5zM198 1311v233h179v-233h-179zM575 1311v233h178
v-233h-178z" />
    <glyph glyph-name="dagger" unicode="&#x2020;" horiz-adv-x="956" 
d="M387 -197v1131h-266v162h264v448h172v-448h264v-162h-264v-1131h-170z" />
    <glyph glyph-name="degree" unicode="&#xb0;" horiz-adv-x="893" 
d="M438 852q-74 0 -138.5 28t-113 76.5t-76.5 113t-28 138.5t28 139t76.5 113.5t113 76.5t138.5 28q111 0 198.5 -59.5t123 -141.5t35.5 -156t-28 -138.5t-76 -113t-113 -76.5t-140 -28zM438 989q64 0 116 36t73.5 86.5t21.5 96.5t-16.5 86t-45 69.5t-67 46.5t-82.5 17
q-66 0 -118 -38t-72.5 -86.5t-20.5 -94.5q0 -67 36 -122t84 -76t91 -21z" />
    <glyph glyph-name="cent" unicode="&#xa2;" horiz-adv-x="893" 
d="M412 -37v201q-85 10 -147.5 52t-103.5 113.5t-61 172t-20 227.5q0 119 20 218.5t61 173.5t103.5 119.5t147.5 57.5v199h104v-197q130 -11 204 -92t97 -237l-153 -29q-16 93 -49.5 148.5t-98.5 70.5v-856q66 16 103.5 75.5t54.5 164.5l155 -29q-34 -168 -113 -254
t-200 -100v-199h-104zM412 305v852q-82 -28 -123 -136.5t-41 -289.5q0 -182 39 -291.5t125 -134.5z" />
    <glyph glyph-name="sterling" unicode="&#xa3;" horiz-adv-x="1038" 
d="M76 0v162q94 53 158.5 123t93 148t30.5 151v22h-219v144h185q-29 64 -95 176q-24 39 -47 90t-32 101t-9 102q0 57 22 120.5t68.5 116t119.5 87t175 34.5q135 0 224.5 -49t133 -130t64.5 -167l-168 -43q-15 57 -36 101.5t-52 76.5q-29 31 -67.5 43t-87.5 12
q-71 0 -122 -30.5t-71 -79t-20 -101.5q0 -67 23 -126.5t59 -120.5q29 -50 59 -100t49 -113h268v-144h-254q-2 -102 -28 -181.5t-72.5 -142t-101.5 -114.5h639v-168h-889z" />
    <glyph glyph-name="section" unicode="&#xa7;" horiz-adv-x="1097" 
d="M561 -217q-179 0 -290 81.5t-152 225.5l153 55q24 -74 67.5 -124t99 -69.5t114.5 -19.5q83 0 138 24t76 65.5t21 89.5q0 57 -29 96.5t-71 59.5t-80 32l-180 53q-83 25 -140.5 56t-93.5 69.5t-52.5 84.5t-16.5 102q0 76 32 138.5t79.5 97.5t93.5 54q-111 45 -158 114
t-47 169q0 73 26 133.5t76 103.5t123 67t168 24q81 0 148.5 -16.5t120.5 -52t90.5 -90.5t58.5 -132l-152 -60q-31 102 -93 153.5t-173 51.5q-103 0 -163 -43t-60 -133q0 -37 13 -63.5t36.5 -45.5t56 -32.5t70.5 -24.5l221 -63q106 -32 169 -83t81.5 -109t18.5 -109
q0 -106 -53.5 -180t-149.5 -117q113 -50 161 -122.5t48 -176.5q0 -112 -59 -191.5t-154 -111t-193 -31.5zM592 475q58 6 109 37.5t75.5 77.5t24.5 88q0 77 -44.5 120.5t-133.5 67.5l-123 35q-39 -5 -77 -21t-68 -42.5t-48 -62.5t-18 -79q0 -56 23.5 -94.5t66.5 -59t88 -32.5
z" />
    <glyph glyph-name="bullet" unicode="&#x2022;" horiz-adv-x="901" 
d="M444 467q-68 0 -128 27t-104 73.5t-69.5 109.5t-25.5 134q0 107 54.5 191.5t129.5 118.5t143 34q100 0 180 -57t113 -137t33 -150q0 -106 -54.5 -191t-129 -119t-142.5 -34z" />
    <glyph glyph-name="paragraph" unicode="&#xb6;" horiz-adv-x="1194" 
d="M524 -393v952h-10q-104 0 -187 34.5t-140.5 98.5t-88 155.5t-30.5 205.5t26.5 205t81 154.5t137 97.5t193.5 34h592v-143h-84v-1794h-144v1794h-202v-1794h-144z" />
    <glyph glyph-name="germandbls" unicode="&#xdf;" horiz-adv-x="995" 
d="M539 -14q-51 0 -85 4.5t-51 9.5l19 152q32 -11 78 -11q79 0 130.5 48t69 121.5t17.5 146.5q0 71 -13 129.5t-45 100t-86.5 64.5t-138.5 23h-20v154h20q84 0 138 47.5t70.5 111t16.5 115.5q0 112 -47.5 166.5t-128.5 54.5q-79 0 -123 -46t-56.5 -119t-12.5 -148v-1110
h-176v1106q0 102 19 183t63 143q45 63 116.5 98t171.5 35q103 0 173.5 -34.5t113.5 -96.5q59 -88 59 -215q0 -78 -19.5 -145t-66.5 -121t-110 -85q104 -16 164.5 -82.5t80 -156t19.5 -170.5q0 -105 -25 -192t-72 -149.5t-113.5 -97t-149.5 -34.5z" />
    <glyph glyph-name="registered" unicode="&#xae;" horiz-adv-x="1732" 
d="M860 -33q-106 0 -204 29t-182.5 81t-154.5 126t-119.5 163t-76.5 192t-27 214q0 174 65.5 329t186 268.5t254.5 160.5t258 47q105 0 202.5 -28.5t182.5 -81t154.5 -126t119 -163t76.5 -192.5t27 -214q0 -178 -67.5 -332t-185 -266.5t-253 -159.5t-256.5 -47zM860 102
q126 0 236.5 52t193 143t130.5 213t48 262t-48 262t-130.5 213t-193 143t-236.5 52q-127 0 -238 -52t-193.5 -143t-130.5 -213t-48 -262t48 -262t130.5 -213t193.5 -143t238 -52zM553 350v848h330q143 0 218 -67t75 -189q0 -47 -19 -94t-54.5 -81t-78.5 -52l184 -365h-168
l-157 334h-17h-166v-334h-147zM700 807h154q57 0 95 16t54.5 48.5t16.5 70.5q0 54 -25.5 85.5t-64.5 40.5t-76 9h-154v-270z" />
    <glyph glyph-name="copyright" unicode="&#xa9;" horiz-adv-x="1732" 
d="M860 -33q-106 0 -204 29t-182.5 81t-154.5 126t-119.5 163t-76.5 192t-27 214q0 174 65.5 329t186 268.5t254.5 160.5t258 47q105 0 202.5 -28.5t182.5 -81t154.5 -126t119 -163t76.5 -192.5t27 -214q0 -178 -67.5 -332t-185 -266.5t-253 -159.5t-256.5 -47zM860 102
q126 0 236.5 52t193 143t130.5 213t48 262t-48 262t-130.5 213t-193 143t-236.5 52q-127 0 -238 -52t-193.5 -143t-130.5 -213t-48 -262t48 -262t130.5 -213t193.5 -143t238 -52zM850 332q-81 0 -148 28t-116 82.5t-76 136t-27 189.5q0 105 26 188t74 141t117 89t156 31
q91 0 162 -34.5t112 -97t58 -137.5l-150 -37q-21 87 -67 128.5t-115 41.5q-56 0 -96.5 -24t-67 -67t-39 -101t-12.5 -125q0 -66 14.5 -120.5t41.5 -93t66 -60t89 -21.5q60 0 104 30t65 78.5t28 92.5l153 -23q-32 -161 -124 -238t-228 -77z" />
    <glyph glyph-name="trademark" unicode="&#x2122;" horiz-adv-x="1810" 
d="M301 694v723h-266v127h682v-127h-266v-723h-150zM850 694v850h197l210 -678l226 678h184v-850h-139v631l-205 -631h-139l-195 637v-637h-139z" />
    <glyph glyph-name="acute" unicode="&#xb4;" horiz-adv-x="802" 
d="M225 1272l158 272h180l-194 -272h-144z" />
    <glyph glyph-name="dieresis" unicode="&#xa8;" horiz-adv-x="858" 
d="M143 1311v233h179v-233h-179zM520 1311v233h178v-233h-178z" />
    <glyph glyph-name="notequal" unicode="&#x2260;" 
d="M184 147l119 269h-237v157h303l139 316h-442v158h509l119 268h150l-119 -268h236v-158h-304l-139 -316h443v-157h-510l-119 -269h-148z" />
    <glyph glyph-name="AE" unicode="&#xc6;" horiz-adv-x="1845" 
d="M-20 0l780 1544h964v-162h-645v-516h611v-159h-611v-545h672v-162h-856v395h-533l-198 -395h-184zM442 555h453v827h-35z" />
    <glyph glyph-name="Oslash" unicode="&#xd8;" horiz-adv-x="1302" 
d="M244 -156l-117 68l125 242q-75 98 -115.5 251t-40.5 365q0 204 37.5 355t108 251t172 149.5t229.5 49.5q77 0 148.5 -20t146.5 -66l109 211l116 -68l-125 -246q76 -100 115 -252t39 -364q0 -202 -37.5 -352.5t-108 -250t-172.5 -149t-231 -49.5q-167 0 -291 86zM643 127
q91 0 158 45t111.5 129t66.5 203t22 266q0 128 -15.5 234t-49.5 188l-502 -977q42 -43 93 -65.5t116 -22.5zM352 348l502 979q-84 90 -211 90q-90 0 -157 -45.5t-111 -129.5t-66 -203.5t-22 -268.5q0 -257 65 -422z" />
    <glyph glyph-name="plusminus" unicode="&#xb1;" 
d="M66 0v156h364v471h-364v155h364v475h166v-475h365v-155h-365v-471h365v-156h-895z" />
    <glyph glyph-name="lessequal" unicode="&#x2264;" 
d="M66 0v160h895v-160h-895zM961 244l-895 444v164l895 444v-176l-717 -350l717 -350v-176z" />
    <glyph glyph-name="greaterequal" unicode="&#x2265;" 
d="M66 0v160h895v-160h-895zM66 244v176l716 350l-716 350v176l895 -444v-164z" />
    <glyph glyph-name="yen" unicode="&#xa5;" horiz-adv-x="1005" 
d="M403 0v307h-237v123h237v178h-237v123h196l-362 813h182l318 -719l315 719h176l-366 -813h200v-123h-237v-178h237v-123h-237v-307h-185z" />
    <glyph glyph-name="currency" unicode="&#xa4;" horiz-adv-x="1265" 
d="M205 233l-103 107l113 117q-49 66 -75.5 146.5t-26.5 170.5t26.5 171t75.5 147l-113 116l103 107l114 -115q63 50 141.5 77.5t166.5 27.5q85 0 163.5 -27.5t141.5 -77.5l115 115l102 -107l-113 -116q51 -66 78 -147t27 -171t-27 -170.5t-78 -146.5l113 -117l-102 -107
l-115 115q-63 -49 -141 -76.5t-164 -27.5q-87 0 -166 27.5t-142 76.5zM627 393q107 0 194 63.5t122.5 151.5t35.5 166q0 116 -59 210.5t-139.5 132.5t-153.5 38q-74 0 -138.5 -30t-112.5 -82t-76 -121.5t-28 -147.5t28 -147.5t76 -121.5t112.5 -82t138.5 -30z" />
    <glyph glyph-name="ordfeminine" unicode="&#xaa;" horiz-adv-x="800" 
d="M301 815q-56 0 -97 16.5t-67.5 44.5t-39.5 65t-13 79q0 115 59.5 172t175.5 74l209 30v31q0 45 -17.5 75.5t-51.5 42t-74 11.5q-67 0 -102 -27.5t-60 -82.5l-114 30q16 57 54 102t97 66t127 21q92 0 154 -28.5t87 -82t25 -115.5v-360q0 -43 6 -78.5t17 -62.5h-121
q-12 21 -16 86q-19 -26 -41 -46t-50.5 -34t-64.5 -21.5t-82 -7.5zM332 928q59 0 106.5 24.5t67.5 65.5t20 86v86l-180 -31q-62 -11 -96.5 -39.5t-34.5 -87.5q0 -39 19 -64.5t46 -32.5t52 -7z" />
    <glyph glyph-name="ordmasculine" unicode="&#xba;" horiz-adv-x="868" 
d="M426 815q-84 0 -145 29t-101.5 79.5t-60 119t-19.5 147.5t19.5 147.5t60 119t101.5 79.5t145 29q121 0 198.5 -61.5t103.5 -148t26 -165.5q0 -123 -46 -213t-122 -126t-160 -36zM426 934q71 0 116 40.5t59.5 101t14.5 114.5q0 85 -25.5 144.5t-70.5 84.5t-94 25
q-50 0 -85 -19.5t-57.5 -54t-33 -80.5t-10.5 -100t10.5 -100.5t33 -81t57.5 -54.5t85 -20z" />
    <glyph glyph-name="ae" unicode="&#xe6;" horiz-adv-x="1460" 
d="M365 -31q-69 0 -123 23t-91 64t-56 97t-19 121q0 128 47.5 207t123.5 113.5t152 50.5l209 45v86q0 71 -18.5 115t-58 62t-85.5 18q-61 0 -100.5 -26t-57.5 -68.5t-30 -83.5l-152 38q20 89 69.5 156.5t122 96t157.5 28.5q71 0 123.5 -17t89.5 -52t57 -78q48 77 116.5 112
t162.5 35q140 0 226.5 -75t115 -190t28.5 -224v-119h-602q2 -95 15 -167.5t38.5 -121.5t66 -73.5t97.5 -24.5q67 0 109.5 25t64 72.5t33.5 100.5l160 -43q-37 -154 -131 -228.5t-238 -74.5q-109 0 -186.5 45t-122.5 131q-50 -82 -107 -119.5t-110 -47t-96 -9.5zM397 111
q64 0 114.5 37t73.5 101t23 132v166l-170 -37q-96 -20 -143 -73.5t-47 -149.5q0 -93 40 -134.5t109 -41.5zM772 643h424q-2 122 -27.5 196t-73.5 104t-104 30q-55 0 -95.5 -26.5t-67 -71.5t-40.5 -105t-16 -127z" />
    <glyph glyph-name="oslash" unicode="&#xf8;" horiz-adv-x="975" 
d="M195 -125l-99 55l94 176q-55 75 -82.5 184.5t-27.5 250.5q0 130 24 236t73 180t124 114.5t178 40.5q123 0 209 -59l80 151l98 -55l-94 -178q56 -75 82.5 -183t26.5 -247q0 -131 -24 -236.5t-73.5 -180t-125.5 -115t-179 -40.5q-60 0 -110.5 14t-94.5 42zM479 115
q89 0 141 62t68.5 162.5t16.5 201.5q0 74 -7 135t-22 112l-328 -622q26 -25 57.5 -38t73.5 -13zM283 287l329 624q-51 56 -133 56q-89 0 -142 -64.5t-68 -163t-15 -198.5q0 -152 29 -254z" />
    <glyph glyph-name="questiondown" unicode="&#xbf;" horiz-adv-x="921" 
d="M461 -31q-96 0 -164.5 30.5t-113 81.5t-65 118t-20.5 141q0 121 49.5 211.5t113 147t101.5 96.5q29 31 42.5 61.5t13.5 75.5v117h162v-140q0 -64 -14.5 -106.5t-43.5 -75.5q-35 -40 -77 -73.5t-79 -74t-62 -93t-25 -130.5q0 -118 49 -177.5t143 -59.5q75 0 121.5 44.5
t64.5 103t25 108.5l166 -25q-15 -131 -70.5 -219t-140 -124.5t-176.5 -37.5zM399 1266v278h199v-278h-199z" />
    <glyph glyph-name="exclamdown" unicode="&#xa1;" horiz-adv-x="581" 
d="M184 0v303l23 723h151l23 -723v-303h-197zM184 1266v278h199v-278h-199z" />
    <glyph glyph-name="logicalnot" unicode="&#xac;" 
d="M801 416v471h-735v160h895v-631h-160z" />
    <glyph glyph-name="florin" unicode="&#x192;" horiz-adv-x="688" 
d="M-29 -424q-35 0 -71.5 5.5t-73.5 19.5l20 141q64 -12 80 -12q35 0 57.5 9t39.5 27t27 49.5t18 82.5l125 886h-101v148h123l51 356q14 104 57 170t97.5 86.5t105.5 20.5q86 0 146 -17l-21 -147q-38 8 -82 8q-34 0 -57.5 -12t-40.5 -37q-15 -22 -25 -53.5t-16 -73.5
l-43 -301h170v-148h-190l-129 -909q-17 -117 -54.5 -183t-96.5 -91t-116 -25z" />
    <glyph glyph-name="guillemotleft" unicode="&#xab;" horiz-adv-x="794" 
d="M227 174l-192 361l192 360h176l-190 -360l190 -361h-176zM569 174l-190 361l190 360h176l-190 -360l190 -361h-176z" />
    <glyph glyph-name="guillemotright" unicode="&#xbb;" horiz-adv-x="794" 
d="M35 174l190 361l-190 360h176l190 -360l-190 -361h-176zM377 174l190 361l-190 360h176l192 -360l-192 -361h-176z" />
    <glyph glyph-name="ellipsis" unicode="&#x2026;" horiz-adv-x="2062" 
d="M240 0v276h202v-276h-202zM924 0v276h202v-276h-202zM1606 0v276h202v-276h-202z" />
    <glyph glyph-name="nonbreakingspace" unicode="&#xa0;" horiz-adv-x="536" 
 />
    <glyph glyph-name="Agrave" unicode="&#xc0;" horiz-adv-x="1114" 
d="M0 0l444 1544h213l443 -1544h-191l-106 385h-531l-106 -385h-166zM313 541h449l-221 821zM479 1659l-195 272h180l158 -272h-143z" />
    <glyph glyph-name="Atilde" unicode="&#xc3;" horiz-adv-x="1114" 
d="M0 0l444 1544h213l443 -1544h-191l-106 385h-531l-106 -385h-166zM313 541h449l-221 821zM690 1671q-43 0 -73.5 10.5t-78.5 42.5l-47 31q-20 14 -39.5 22.5t-42.5 8.5q-30 0 -50 -27t-31 -69l-105 28q13 79 46 129t66.5 64t61.5 14q68 0 144 -49l57 -37q51 -31 84 -31
q28 0 46.5 24t29.5 77l106 -29q-10 -58 -28 -98t-41.5 -64.5t-50.5 -35.5t-54 -11z" />
    <glyph glyph-name="Otilde" unicode="&#xd5;" horiz-adv-x="1302" 
d="M643 -31q-128 0 -229.5 49.5t-172 149t-108 250t-37.5 352.5q0 204 37.5 355t108 251t172 149.5t229.5 49.5q129 0 231 -49.5t172.5 -149.5t108 -251t37.5 -355q0 -202 -37.5 -352.5t-108 -250t-172.5 -149t-231 -49.5zM643 127q91 0 158 45t111.5 129t66.5 203t22 266
q0 149 -22 268.5t-66.5 203.5t-111.5 129.5t-158 45.5q-90 0 -157 -45.5t-111 -129.5t-66 -203.5t-22 -268.5q0 -147 22 -266t66 -203t111 -129t157 -45zM799 1671q-43 0 -73.5 10.5t-78.5 42.5l-47 31q-20 14 -39.5 22.5t-42.5 8.5q-30 0 -50 -27t-31 -69l-105 28
q13 79 46 129t66.5 64t61.5 14q68 0 144 -49l57 -37q51 -31 84 -31q28 0 46.5 24t29.5 77l106 -29q-10 -58 -28 -98t-41.5 -64.5t-50.5 -35.5t-54 -11z" />
    <glyph glyph-name="OE" unicode="&#x152;" horiz-adv-x="1939" 
d="M627 -31q-122 0 -220.5 49t-167.5 148.5t-106 250t-37 353.5q0 204 37 355t106.5 251t168.5 149.5t223 49.5q126 0 222 -53.5t155 -175.5v198h811v-162h-648v-516h613v-159h-613v-545h674v-162h-837v197q-63 -123 -159 -175.5t-222 -52.5zM643 125q91 0 158 45.5
t111.5 129.5t66.5 203.5t22 266.5q0 149 -22 269t-66.5 204.5t-111.5 130t-158 45.5q-90 0 -157 -45.5t-111 -130t-66 -204.5t-22 -269q0 -147 22 -266.5t66 -203.5t111 -129.5t157 -45.5z" />
    <glyph glyph-name="oe" unicode="&#x153;" horiz-adv-x="1556" 
d="M479 -31q-102 0 -177 40.5t-124.5 115t-73.5 180t-24 236.5q0 130 24 236t73 180t124 114.5t178 40.5q105 0 182 -48t125 -155q50 104 125 153.5t181 49.5q144 0 232.5 -75.5t117 -190t28.5 -223.5v-119h-602q2 -95 15 -167.5t38.5 -121.5t66 -73.5t97.5 -24.5
q67 0 110 25t64.5 72.5t32.5 100.5l160 -43q-37 -154 -131 -228.5t-238 -74.5q-103 0 -179.5 47t-123.5 150q-46 -103 -122.5 -150t-178.5 -47zM479 119q84 0 136 60.5t68.5 161t16.5 200.5q0 155 -29.5 251.5t-82 133.5t-109.5 37q-58 0 -100 -28.5t-69 -82.5t-39.5 -132.5
t-12.5 -178.5t12.5 -178.5t39.5 -132.5t69 -82.5t100 -28.5zM868 643h424q-2 122 -27.5 196t-73.5 104t-104 30q-55 0 -95.5 -26.5t-67 -71.5t-40.5 -105t-16 -127z" />
    <glyph glyph-name="endash" unicode="&#x2013;" horiz-adv-x="1038" 
d="M0 502v162h1024v-162h-1024z" />
    <glyph glyph-name="emdash" unicode="&#x2014;" horiz-adv-x="2062" 
d="M0 502v162h2048v-162h-2048z" />
    <glyph glyph-name="quotedblleft" unicode="&#x201c;" horiz-adv-x="833" 
d="M141 915v279q0 60 10 109.5t27 91.5q22 51 52 92t67 76l76 -72q-42 -45 -68.5 -87t-37.5 -89.5t-11 -93.5v-27h86v-279h-201zM475 915v279q0 118 37 201q22 51 53 92t66 76l76 -72q-39 -42 -65.5 -84.5t-38 -91t-11.5 -94.5v-27h84v-279h-201z" />
    <glyph glyph-name="quotedblright" unicode="&#x201d;" horiz-adv-x="833" 
d="M188 897l-75 74q43 45 67 86t36.5 89.5t12.5 94.5v25h-86v278h201v-278q0 -120 -37 -201q-21 -51 -51 -91t-68 -77zM522 897l-76 74q41 43 66 84t38 90.5t13 95.5v25h-86v278h201v-278q0 -60 -10 -109.5t-27 -91.5q-22 -51 -52 -91t-67 -77z" />
    <glyph glyph-name="quoteleft" unicode="&#x2018;" horiz-adv-x="499" 
d="M141 915v279q0 60 10 109.5t27 91.5q22 51 52 92t67 76l76 -72q-42 -45 -68.5 -87t-37.5 -89.5t-11 -93.5v-27h86v-279h-201z" />
    <glyph glyph-name="quoteright" unicode="&#x2019;" horiz-adv-x="499" 
d="M188 897l-75 74q43 45 67 86t36.5 89.5t12.5 94.5v25h-86v278h201v-278q0 -120 -37 -201q-21 -51 -51 -91t-68 -77z" />
    <glyph glyph-name="divide" unicode="&#xf7;" 
d="M426 213v244h174v-244h-174zM66 651v160h895v-160h-895zM426 1006v243h174v-243h-174z" />
    <glyph glyph-name="ydieresis" unicode="&#xff;" horiz-adv-x="837" 
d="M211 -424q-39 0 -78 6.5t-84 22.5l33 141q51 -20 96 -20q25 0 44 6.5t34 21.5q17 17 28 41t19 53l43 152l-346 1081h174l254 -827l223 827h172l-362 -1269q-17 -57 -40 -104t-52 -75q-29 -27 -70.5 -42t-87.5 -15zM132 1311v233h179v-233h-179zM509 1311v233h178v-233
h-178z" />
    <glyph glyph-name="Ydieresis" unicode="&#x178;" horiz-adv-x="1005" 
d="M403 0v641l-403 903h188l312 -704l311 704h180l-405 -901v-643h-183zM221 1698v233h179v-233h-179zM598 1698v233h178v-233h-178z" />
    <glyph glyph-name="guilsinglleft" unicode="&#x2039;" horiz-adv-x="452" 
d="M227 174l-192 361l192 360h176l-190 -360l190 -361h-176z" />
    <glyph glyph-name="guilsinglright" unicode="&#x203a;" horiz-adv-x="450" 
d="M35 174l190 361l-190 360h176l190 -360l-190 -361h-176z" />
    <glyph glyph-name="fi" unicode="&#xfb01;" horiz-adv-x="938" 
d="M152 0v934h-125v147h125v181q0 88 18 146.5t53 92.5q34 32 78 48t96 16q51 0 85.5 -5.5t66.5 -13.5l-12 -145q-46 12 -91 12q-63 0 -90.5 -37.5t-27.5 -115.5v-179h190v-147h-190v-934h-176zM633 0v1081h176v-1081h-176zM633 1317v227h176v-227h-176z" />
    <glyph glyph-name="fl" unicode="&#xfb02;" horiz-adv-x="938" 
d="M152 0v934h-125v147h125v181q0 88 18 146.5t53 92.5q34 32 78 48t96 16q51 0 85.5 -5.5t66.5 -13.5l-12 -145q-46 12 -91 12q-63 0 -90.5 -37.5t-27.5 -115.5v-179h190v-147h-190v-934h-176zM633 0v1544h176v-1544h-176z" />
    <glyph glyph-name="daggerdbl" unicode="&#x2021;" horiz-adv-x="977" 
d="M395 -197v449h-264v162h264v520h-264v162h264v448h170v-448h266v-162h-264v-520h264v-162h-264v-449h-172z" />
    <glyph glyph-name="periodcentered" unicode="&#xb7;" horiz-adv-x="499" 
d="M141 592v276h203v-276h-203z" />
    <glyph glyph-name="periodcentered" unicode="&#x22c5;" horiz-adv-x="499" 
d="M141 592v276h203v-276h-203z" />
    <glyph glyph-name="periodcentered" unicode="&#x2219;" horiz-adv-x="499" 
d="M141 592v276h203v-276h-203z" />
    <glyph glyph-name="quotesinglbase" unicode="&#x201a;" horiz-adv-x="499" 
d="M188 -369l-75 72q24 25 45 53.5t36.5 61t25 71t9.5 84.5v27h-86v279h201v-279q0 -118 -37 -201q-21 -51 -51 -92t-68 -76z" />
    <glyph glyph-name="quotedblbase" unicode="&#x201e;" horiz-adv-x="833" 
d="M188 -369l-75 72q24 25 45 53.5t36.5 61t25 71t9.5 84.5v27h-86v279h201v-279q0 -118 -37 -201q-21 -51 -51 -92t-68 -76zM522 -369l-76 72q38 40 64 81t39.5 92t13.5 97v27h-86v279h201v-279q0 -60 -10 -109.5t-27 -91.5q-22 -51 -52 -92t-67 -76z" />
    <glyph glyph-name="perthousand" unicode="&#x2030;" horiz-adv-x="2500" 
d="M487 -37l588 1534h158l-586 -1534h-160zM1329 -37q-84 0 -145 31t-100 90t-57.5 145t-18.5 197q0 108 18.5 193.5t57.5 144.5t100 90t145 31q124 0 198.5 -67t100 -175t25.5 -217q0 -171 -45.5 -279t-120 -146t-158.5 -38zM2095 -37q-84 0 -145 31t-100 90t-57.5 145
t-18.5 197q0 108 18.5 193.5t57.5 144.5t100 90t145 31q124 0 198.5 -67t100 -175t25.5 -217q0 -171 -45.5 -279t-120 -146t-158.5 -38zM1329 102q87 0 125.5 82t38.5 240t-38.5 239.5t-125.5 81.5t-125.5 -81.5t-38.5 -239.5t38.5 -240t125.5 -82zM2095 102q88 0 126 82
t38 240t-38 239.5t-126 81.5q-87 0 -125.5 -81.5t-38.5 -239.5t38.5 -240t125.5 -82zM391 575q-84 0 -145 31t-100 90t-57.5 144.5t-18.5 195.5q0 109 18.5 194.5t57.5 145t100 90.5t145 31q124 0 198 -67t100 -175.5t26 -218.5q0 -169 -45.5 -277t-120 -146t-158.5 -38z
M391 715q87 0 125.5 81.5t38.5 239.5t-38.5 240t-125.5 82t-125.5 -82t-38.5 -240t38.5 -239.5t125.5 -81.5z" />
    <glyph glyph-name="Acircumflex" unicode="&#xc2;" horiz-adv-x="1114" 
d="M0 0l444 1544h213l443 -1544h-191l-106 385h-531l-106 -385h-166zM313 541h449l-221 821zM256 1659l209 272h166l209 -272h-152l-141 162l-142 -162h-149z" />
    <glyph glyph-name="Ecircumflex" unicode="&#xca;" horiz-adv-x="1083" 
d="M135 0v1544h828v-162h-646v-516h611v-159h-611v-545h674v-162h-856zM254 1659l209 272h166l209 -272h-152l-141 162l-142 -162h-149z" />
    <glyph glyph-name="Aacute" unicode="&#xc1;" horiz-adv-x="1114" 
d="M0 0l444 1544h213l443 -1544h-191l-106 385h-531l-106 -385h-166zM313 541h449l-221 821zM487 1659l158 272h180l-194 -272h-144z" />
    <glyph glyph-name="Edieresis" unicode="&#xcb;" horiz-adv-x="1083" 
d="M135 0v1544h828v-162h-646v-516h611v-159h-611v-545h674v-162h-856zM274 1698v233h179v-233h-179zM651 1698v233h178v-233h-178z" />
    <glyph glyph-name="Egrave" unicode="&#xc8;" horiz-adv-x="1083" 
d="M135 0v1544h828v-162h-646v-516h611v-159h-611v-545h674v-162h-856zM527 1659l-195 272h180l158 -272h-143z" />
    <glyph glyph-name="Iacute" unicode="&#xcd;" horiz-adv-x="467" 
d="M135 0v1544h182v-1544h-182zM171 1659l158 272h180l-194 -272h-144z" />
    <glyph glyph-name="Icircumflex" unicode="&#xce;" horiz-adv-x="467" 
d="M135 0v1544h182v-1544h-182zM-64 1659l209 272h166l209 -272h-152l-141 162l-142 -162h-149z" />
    <glyph glyph-name="Idieresis" unicode="&#xcf;" horiz-adv-x="467" 
d="M135 0v1544h182v-1544h-182zM-51 1698v233h179v-233h-179zM326 1698v233h178v-233h-178z" />
    <glyph glyph-name="Igrave" unicode="&#xcc;" horiz-adv-x="467" 
d="M135 0v1544h182v-1544h-182zM159 1659l-195 272h180l158 -272h-143z" />
    <glyph glyph-name="Oacute" unicode="&#xd3;" horiz-adv-x="1302" 
d="M643 -31q-128 0 -229.5 49.5t-172 149t-108 250t-37.5 352.5q0 204 37.5 355t108 251t172 149.5t229.5 49.5q129 0 231 -49.5t172.5 -149.5t108 -251t37.5 -355q0 -202 -37.5 -352.5t-108 -250t-172.5 -149t-231 -49.5zM643 127q91 0 158 45t111.5 129t66.5 203t22 266
q0 149 -22 268.5t-66.5 203.5t-111.5 129.5t-158 45.5q-90 0 -157 -45.5t-111 -129.5t-66 -203.5t-22 -268.5q0 -147 22 -266t66 -203t111 -129t157 -45zM565 1659l158 272h180l-194 -272h-144z" />
    <glyph glyph-name="Ocircumflex" unicode="&#xd4;" horiz-adv-x="1302" 
d="M643 -31q-128 0 -229.5 49.5t-172 149t-108 250t-37.5 352.5q0 204 37.5 355t108 251t172 149.5t229.5 49.5q129 0 231 -49.5t172.5 -149.5t108 -251t37.5 -355q0 -202 -37.5 -352.5t-108 -250t-172.5 -149t-231 -49.5zM643 127q91 0 158 45t111.5 129t66.5 203t22 266
q0 149 -22 268.5t-66.5 203.5t-111.5 129.5t-158 45.5q-90 0 -157 -45.5t-111 -129.5t-66 -203.5t-22 -268.5q0 -147 22 -266t66 -203t111 -129t157 -45zM357 1659l209 272h166l209 -272h-152l-141 162l-142 -162h-149z" />
    <glyph glyph-name="Ograve" unicode="&#xd2;" horiz-adv-x="1302" 
d="M643 -31q-128 0 -229.5 49.5t-172 149t-108 250t-37.5 352.5q0 204 37.5 355t108 251t172 149.5t229.5 49.5q129 0 231 -49.5t172.5 -149.5t108 -251t37.5 -355q0 -202 -37.5 -352.5t-108 -250t-172.5 -149t-231 -49.5zM643 127q91 0 158 45t111.5 129t66.5 203t22 266
q0 149 -22 268.5t-66.5 203.5t-111.5 129.5t-158 45.5q-90 0 -157 -45.5t-111 -129.5t-66 -203.5t-22 -268.5q0 -147 22 -266t66 -203t111 -129t157 -45zM615 1659l-195 272h180l158 -272h-143z" />
    <glyph glyph-name="Uacute" unicode="&#xda;" horiz-adv-x="1192" 
d="M592 -37q-132 0 -222 40.5t-145.5 114t-79.5 175.5t-24 225v1026h182v-1026q0 -204 70.5 -297.5t218.5 -93.5q141 0 211.5 93.5t70.5 297.5v1026h183v-1026q0 -123 -24 -225t-79 -175.5t-143.5 -114t-218.5 -40.5zM501 1659l158 272h180l-194 -272h-144z" />
    <glyph glyph-name="Ucircumflex" unicode="&#xdb;" horiz-adv-x="1192" 
d="M592 -37q-132 0 -222 40.5t-145.5 114t-79.5 175.5t-24 225v1026h182v-1026q0 -204 70.5 -297.5t218.5 -93.5q141 0 211.5 93.5t70.5 297.5v1026h183v-1026q0 -123 -24 -225t-79 -175.5t-143.5 -114t-218.5 -40.5zM293 1659l209 272h166l209 -272h-152l-141 162
l-142 -162h-149z" />
    <glyph glyph-name="Ugrave" unicode="&#xd9;" horiz-adv-x="1192" 
d="M592 -37q-132 0 -222 40.5t-145.5 114t-79.5 175.5t-24 225v1026h182v-1026q0 -204 70.5 -297.5t218.5 -93.5q141 0 211.5 93.5t70.5 297.5v1026h183v-1026q0 -123 -24 -225t-79 -175.5t-143.5 -114t-218.5 -40.5zM541 1659l-195 272h180l158 -272h-143z" />
    <glyph glyph-name="dotlessi" unicode="&#x131;" horiz-adv-x="420" 
d="M115 0v1081h176v-1081h-176z" />
    <glyph glyph-name="circumflex" unicode="&#x2c6;" horiz-adv-x="757" 
d="M78 1272l209 272h166l209 -272h-152l-141 162l-142 -162h-149z" />
    <glyph glyph-name="tilde" unicode="&#x2dc;" horiz-adv-x="749" 
d="M514 1284q-43 0 -73.5 10.5t-78.5 42.5l-47 31q-20 14 -39.5 22.5t-42.5 8.5q-30 0 -50 -27t-31 -69l-105 28q13 79 46 129t66.5 64t61.5 14q68 0 144 -49l57 -37q51 -31 84 -31q28 0 46.5 24t29.5 77l106 -29q-10 -58 -28 -98t-41.5 -64.5t-50.5 -35.5t-54 -11z" />
    <glyph glyph-name="macron" unicode="&#xaf;" horiz-adv-x="757" 
d="M84 1337v142h575v-142h-575z" />
    <glyph glyph-name="macron" unicode="&#x2c9;" horiz-adv-x="757" 
d="M84 1337v142h575v-142h-575z" />
    <glyph glyph-name="breve" unicode="&#x2d8;" horiz-adv-x="766" 
d="M375 1288q-65 0 -115 18t-84.5 50.5t-55 76.5t-26.5 95h129q10 -37 33 -62.5t54 -37t65 -11.5q53 0 88 19.5t48.5 46.5t18.5 45h127q-10 -78 -51.5 -137t-103.5 -81t-127 -22z" />
    <glyph glyph-name="dotaccent" unicode="&#x2d9;" horiz-adv-x="839" 
d="M336 1311v233h151v-233h-151z" />
    <glyph glyph-name="ring" unicode="&#x2da;" horiz-adv-x="811" 
d="M397 1268q-57 0 -98.5 17.5t-69.5 48t-41.5 71.5t-13.5 88q0 74 31 126t83 74.5t109 22.5q85 0 138.5 -37t71.5 -88t18 -98t-13.5 -88t-42 -71.5t-71.5 -48t-101 -17.5zM397 1360q44 0 74 21t39.5 53t9.5 59q0 42 -16 72t-46 44.5t-61 14.5q-45 0 -74.5 -23.5t-38 -52.5
t-8.5 -55q0 -27 7.5 -51t22.5 -42.5t37.5 -29t53.5 -10.5z" />
    <glyph glyph-name="cedilla" unicode="&#xb8;" horiz-adv-x="811" 
d="M240 -393l168 272h135l-135 -272h-168z" />
    <glyph glyph-name="hungarumlaut" unicode="&#x2dd;" horiz-adv-x="776" 
d="M137 1272l94 272h148l-129 -272h-113zM383 1272l96 272h146l-127 -272h-115z" />
    <glyph glyph-name="ogonek" unicode="&#x2db;" horiz-adv-x="802" 
d="M395 -348q-40 0 -73.5 9.5t-58 30t-38.5 51.5t-14 73q0 63 20.5 107.5t49.5 76.5h88q-23 -34 -33 -62.5t-10 -66.5q0 -51 30 -76.5t78 -25.5q58 0 109 28l35 -100q-28 -17 -74.5 -31t-108.5 -14z" />
    <glyph glyph-name="caron" unicode="&#x2c7;" horiz-adv-x="757" 
d="M289 1272l-207 272h149l142 -162l139 162h152l-209 -272h-166z" />
    <glyph glyph-name="Scaron" unicode="&#x160;" horiz-adv-x="1114" 
d="M547 -31q-120 0 -205 31t-142 89t-90.5 140.5t-50.5 184.5l179 35q9 -62 26.5 -120t51 -103.5t88.5 -73t139 -27.5q103 0 169 39.5t87.5 101.5t21.5 123q0 106 -52 179.5t-175 111.5l-160 49q-90 28 -155 66.5t-107 90.5t-62 118.5t-20 150.5q0 139 64.5 242t166 140.5
t207.5 37.5q94 0 170 -21.5t133 -68.5t96.5 -120.5t61.5 -176.5l-170 -47q-12 54 -32.5 104.5t-54 89.5t-83 62.5t-119.5 23.5q-100 0 -161 -40.5t-80 -102t-19 -119.5q0 -103 57 -168.5t173 -99.5l178 -53q87 -26 147 -62.5t101 -87.5q84 -106 84 -282q0 -98 -27 -178.5
t-84 -138t-144.5 -89t-207.5 -31.5zM463 1659l-207 272h149l142 -162l139 162h152l-209 -272h-166z" />
    <glyph glyph-name="scaron" unicode="&#x161;" horiz-adv-x="843" 
d="M408 -31q-88 0 -152 23.5t-106 66.5q-41 41 -68.5 100.5t-36.5 127.5l158 35q11 -51 25 -92.5t42 -69.5q22 -23 52.5 -35t76.5 -12q91 0 131.5 43t40.5 120q0 55 -17 90t-51 56.5t-73 34.5l-117 39q-123 42 -181 118.5t-58 186.5q0 68 21 125t62.5 98.5t102 64.5
t139.5 23q74 0 134 -19.5t100 -57.5t63 -83q28 -55 37 -114l-158 -37q-11 48 -26 78.5t-37 52.5q-17 17 -44.5 28t-66.5 11q-74 0 -115.5 -41t-41.5 -119q0 -65 34 -104t111 -64l125 -39q125 -38 179.5 -117.5t54.5 -197.5q0 -105 -49 -182.5t-128 -107.5t-163 -30z
M342 1272l-207 272h149l142 -162l139 162h152l-209 -272h-166z" />
    <glyph glyph-name="Yacute" unicode="&#xdd;" horiz-adv-x="1005" 
d="M403 0v641l-403 903h188l312 -704l311 704h180l-405 -901v-643h-183zM442 1659l158 272h180l-194 -272h-144z" />
    <glyph glyph-name="yacute" unicode="&#xfd;" horiz-adv-x="837" 
d="M211 -424q-39 0 -78 6.5t-84 22.5l33 141q51 -20 96 -20q25 0 44 6.5t34 21.5q17 17 28 41t19 53l43 152l-346 1081h174l254 -827l223 827h172l-362 -1269q-17 -57 -40 -104t-52 -75q-29 -27 -70.5 -42t-87.5 -15zM368 1272l158 272h180l-194 -272h-144z" />
    <glyph glyph-name="Thorn" unicode="&#xde;" horiz-adv-x="1104" 
d="M135 0v1544h180v-287h289q106 0 184.5 -32t130.5 -92t77.5 -146t25.5 -194q0 -109 -29 -196t-85.5 -147.5t-139.5 -93t-190 -32.5h-263v-324h-180zM315 475h238q98 0 164.5 44.5t92.5 119t26 154.5q-2 154 -73 233.5t-202 79.5h-246v-631z" />
    <glyph glyph-name="thorn" unicode="&#xfe;" horiz-adv-x="985" 
d="M115 -393v1937h176v-590q43 88 111 123t153 35q118 0 196.5 -76t109 -207t30.5 -272q0 -129 -20.5 -237t-64.5 -186t-112 -121.5t-162 -43.5q-80 0 -140.5 36.5t-100.5 115.5v-514h-176zM498 113q75 0 124 55t68 155t19 216q0 213 -48 321.5t-157 108.5q-59 0 -100 -32.5
t-67 -90.5t-38 -138.5t-12 -175.5q0 -92 12 -169t37.5 -132.5t65.5 -86.5t96 -31z" />
    <glyph glyph-name="Zcaron" unicode="&#x17d;" horiz-adv-x="1034" 
d="M59 0v168l686 1214h-641v162h832v-168l-684 -1214h711v-162h-904zM449 1659l-207 272h149l142 -162l139 162h152l-209 -272h-166z" />
    <glyph glyph-name="zcaron" unicode="&#x17e;" horiz-adv-x="794" 
d="M59 0v137l461 797h-438v147h623v-137l-461 -797h477v-147h-662zM334 1272l-207 272h149l142 -162l139 162h152l-209 -272h-166z" />
    <glyph glyph-name="onehalf" unicode="&#xbd;" horiz-adv-x="1734" 
d="M387 -37l586 1534h160l-588 -1534h-158zM958 -16v47q0 70 34.5 137.5t81.5 112t87 75.5q23 19 46.5 34.5t41.5 29.5q66 44 95.5 71t46 62.5t16.5 69.5q0 44 -15 71t-49 42.5t-77 15.5q-55 0 -91.5 -27.5t-50 -63t-20.5 -67.5l-150 20q13 70 39 119.5t64 81.5q40 34 95 52
t126 18q87 0 140.5 -23t84.5 -55q34 -35 51 -76.5t17 -107.5t-31 -121t-75.5 -94.5t-86.5 -67.5q-63 -41 -105 -74t-77 -67q-20 -19 -31.5 -36.5t-17.5 -33.5h424v-145h-613zM285 596v694q-87 -62 -174 -104l-60 123q71 35 139 79.5t119 88.5h129v-881h-153z" />
    <glyph glyph-name="onequarter" unicode="&#xbc;" horiz-adv-x="1734" 
d="M408 -37l587 1534h160l-588 -1534h-159zM1337 -16v170h-417v139l399 571h158v-581h77v-129h-77v-170h-140zM1059 283h274v397zM285 596v694q-87 -62 -174 -104l-60 123q71 35 139 79.5t119 88.5h129v-881h-153z" />
    <glyph glyph-name="onesuperior" unicode="&#xb9;" horiz-adv-x="792" 
d="M332 596v694q-40 -29 -86 -56t-88 -48l-60 123q72 35 139.5 79.5t118.5 88.5h127v-881h-151z" />
    <glyph glyph-name="threequarters" unicode="&#xbe;" horiz-adv-x="1734" 
d="M539 -37l587 1534h158l-586 -1534h-159zM1423 -16v168h-417v141l399 571h160v-581h75v-131h-75v-168h-142zM1147 283h274v395zM399 575q-93 0 -153.5 21t-102.5 63q-29 31 -47.5 75.5t-21.5 115.5l147 22q5 -78 46.5 -118.5t113.5 -40.5q46 0 82 9.5t59 35.5
q13 14 21 34.5t8 51.5q0 66 -40.5 99t-121.5 36q-4 4 -16 4q-5 0 -11 -1t-14 -1v133q47 2 83.5 10.5t64.5 30.5q24 19 34.5 41.5t10.5 54.5q0 46 -24.5 73.5t-59.5 35.5t-66 8q-51 0 -87 -24.5t-51.5 -57t-21.5 -59.5l-139 22q20 117 96 182.5t211 65.5q82 0 139.5 -19
t92.5 -53q67 -64 67 -165q0 -65 -33 -121.5t-102 -87.5q59 -18 94 -54.5t45.5 -78t10.5 -78.5q0 -84 -43 -148.5t-117 -90.5t-154 -26z" />
    <glyph glyph-name="threesuperior" unicode="&#xb3;" horiz-adv-x="792" 
d="M391 575q-93 0 -153.5 21t-102.5 63q-29 31 -47.5 75.5t-21.5 115.5l147 22q5 -78 46 -118.5t114 -40.5q46 0 82 9.5t59 35.5q12 14 20.5 34.5t8.5 51.5q0 66 -41 99t-121 36q-4 4 -16 4q-5 0 -11 -1t-14 -1v133q46 2 83 10.5t64 30.5q25 19 35 41.5t10 54.5
q0 46 -24.5 73.5t-59 35.5t-65.5 8q-51 0 -87 -24.5t-51.5 -57t-21.5 -59.5l-139 22q20 117 96 182.5t211 65.5q82 0 139 -19t93 -53q67 -64 67 -165q0 -65 -33 -121.5t-102 -87.5q59 -18 94 -54.5t45.5 -78t10.5 -78.5q0 -84 -43 -148.5t-116.5 -90.5t-154.5 -26z" />
    <glyph glyph-name="twosuperior" unicode="&#xb2;" horiz-adv-x="792" 
d="M86 596v47q0 71 34.5 138.5t81.5 112t87 75.5q49 36 90 63q62 41 94 70.5t48 64t16 68.5q0 42 -16 70.5t-50.5 43.5t-77.5 15q-54 0 -90.5 -27.5t-50 -63t-21.5 -67.5l-147 21q11 69 36.5 117.5t65.5 82.5q39 32 94 51t128 19q85 0 139.5 -23t83.5 -55q34 -35 50.5 -76.5
t16.5 -107.5q0 -64 -29.5 -119t-74.5 -95t-88 -69q-62 -41 -104 -74t-76 -67q-20 -19 -31.5 -36.5t-18.5 -33.5h424v-145h-614z" />
    <glyph glyph-name="brokenbar" unicode="&#xa6;" horiz-adv-x="493" 
d="M164 0v514h151v-514h-151zM164 1030v514h151v-514h-151z" />
    <glyph glyph-name="minus" unicode="&#x2212;" 
d="M66 651v160h895v-160h-895z" />
    <glyph glyph-name="multiply" unicode="&#xd7;" 
d="M258 254l-125 92l283 381l-283 383l123 94l258 -350l256 350l123 -94l-285 -383l285 -381l-125 -92l-254 346z" />
    <glyph glyph-name="lslash" unicode="&#x142;" horiz-adv-x="420" 
d="M115 0v623l-105 -99v158l105 98v764h176v-598l102 96v-155l-102 -96v-791h-176z" />
    <glyph glyph-name="fraction" unicode="&#x2215;" horiz-adv-x="168" 
d="M-297 -37l588 1534h160l-588 -1534h-160z" />
    <glyph glyph-name="amacron" unicode="&#x101;" horiz-adv-x="901" 
d="M348 -31q-67 0 -118.5 23t-87 64t-54 97t-18.5 121q0 128 48 207.5t124 113.5t153 50l211 45v86q0 71 -18.5 115t-57.5 62t-86 18q-61 0 -101.5 -25.5t-58.5 -68.5t-30 -84l-154 38q20 87 69.5 155t123.5 97t160 29q113 0 187.5 -39.5t105 -117.5t30.5 -169v-585
q0 -54 8 -107.5t19 -93.5h-166q-8 28 -10 41q-9 57 -9 88q-37 -65 -81 -101t-92.5 -47.5t-96.5 -11.5zM393 111q66 0 116.5 37t73.5 101t23 132v166l-170 -37q-97 -22 -144.5 -74.5t-47.5 -148.5q0 -93 40 -134.5t109 -41.5zM162 1337v142h575v-142h-575z" />
    <glyph glyph-name="Abreve" unicode="&#x102;" horiz-adv-x="1114" 
d="M0 0l444 1544h213l443 -1544h-191l-106 385h-531l-106 -385h-166zM313 541h449l-221 821zM541 1655q-65 0 -115 18t-84.5 50.5t-55 76.5t-26.5 95h129q10 -37 33 -62.5t54 -37t65 -11.5q53 0 88 19.5t48.5 46.5t18.5 45h127q-10 -78 -51.5 -137t-103.5 -81t-127 -22z" />
    <glyph glyph-name="abreve" unicode="&#x103;" horiz-adv-x="901" 
d="M348 -31q-67 0 -118.5 23t-87 64t-54 97t-18.5 121q0 128 48 207.5t124 113.5t153 50l211 45v86q0 71 -18.5 115t-57.5 62t-86 18q-61 0 -101.5 -25.5t-58.5 -68.5t-30 -84l-154 38q20 87 69.5 155t123.5 97t160 29q113 0 187.5 -39.5t105 -117.5t30.5 -169v-585
q0 -54 8 -107.5t19 -93.5h-166q-8 28 -10 41q-9 57 -9 88q-37 -65 -81 -101t-92.5 -47.5t-96.5 -11.5zM393 111q66 0 116.5 37t73.5 101t23 132v166l-170 -37q-97 -22 -144.5 -74.5t-47.5 -148.5q0 -93 40 -134.5t109 -41.5zM453 1288q-65 0 -115 18t-84.5 50.5t-55 76.5
t-26.5 95h129q10 -37 33 -62.5t54 -37t65 -11.5q53 0 88 19.5t48.5 46.5t18.5 45h127q-10 -78 -51.5 -137t-103.5 -81t-127 -22z" />
    <glyph glyph-name="Aogonek" unicode="&#x104;" horiz-adv-x="1114" 
d="M0 0l444 1544h213l443 -1544h-191l-106 385h-531l-106 -385h-166zM313 541h449l-221 821zM1024 -348q-40 0 -73.5 9.5t-58 30t-38.5 51.5t-14 73q0 63 20.5 107.5t49.5 76.5h88q-23 -34 -33 -62.5t-10 -66.5q0 -51 30 -76.5t78 -25.5q58 0 109 28l35 -100
q-28 -17 -74.5 -31t-108.5 -14z" />
    <glyph glyph-name="aogonek" unicode="&#x105;" horiz-adv-x="901" 
d="M348 -31q-67 0 -118.5 23t-87 64t-54 97t-18.5 121q0 128 48 207.5t124 113.5t153 50l211 45v86q0 71 -18.5 115t-57.5 62t-86 18q-61 0 -101.5 -25.5t-58.5 -68.5t-30 -84l-154 38q20 87 69.5 155t123.5 97t160 29q113 0 187.5 -39.5t105 -117.5t30.5 -169v-585
q0 -54 8 -107.5t19 -93.5h-166q-8 28 -10 41q-9 57 -9 88q-37 -65 -81 -101t-92.5 -47.5t-96.5 -11.5zM393 111q66 0 116.5 37t73.5 101t23 132v166l-170 -37q-97 -22 -144.5 -74.5t-47.5 -148.5q0 -93 40 -134.5t109 -41.5zM751 -348q-40 0 -73.5 9.5t-58 30t-38.5 51.5
t-14 73q0 63 20.5 107.5t49.5 76.5h88q-23 -34 -33 -62.5t-10 -66.5q0 -51 30 -76.5t78 -25.5q58 0 109 28l35 -100q-28 -17 -74.5 -31t-108.5 -14z" />
    <glyph glyph-name="Cacute" unicode="&#x106;" horiz-adv-x="1194" 
d="M612 -31q-117 0 -212.5 44t-163 139.5t-104 245t-36.5 360.5q0 207 35.5 361t103 255t166 151t224.5 50q137 0 237.5 -57t156 -164.5t75.5 -237.5l-187 -35q-31 163 -98 249.5t-186 86.5q-98 0 -162.5 -51.5t-103 -141t-54.5 -211t-16 -261.5q0 -142 18.5 -257t58 -196.5
t101.5 -125.5t149 -44q109 0 177.5 65.5t95.5 159t37 176.5l186 -20q-20 -143 -62 -245.5t-105 -168t-146 -96.5t-185 -31zM501 1639l158 272h180l-194 -272h-144z" />
    <glyph glyph-name="cacute" unicode="&#x107;" horiz-adv-x="893" 
d="M467 -31q-99 0 -172 37.5t-120.5 110.5t-71 179t-23.5 243q0 130 23.5 235.5t72.5 180.5t122.5 116t174.5 41q150 0 234.5 -81.5t109.5 -250.5l-168 -35q-14 86 -37 133t-61 66t-82 19q-80 0 -129 -61.5t-65.5 -160.5t-16.5 -200q0 -100 11 -178t36 -132t63.5 -82
t94.5 -28q65 0 106 32t60.5 89.5t29.5 117.5l170 -34q-37 -185 -130 -271t-232 -86zM366 1272l158 272h180l-194 -272h-144z" />
    <glyph glyph-name="Ccircumflex" unicode="&#x108;" horiz-adv-x="1194" 
d="M612 -31q-117 0 -212.5 44t-163 139.5t-104 245t-36.5 360.5q0 207 35.5 361t103 255t166 151t224.5 50q137 0 237.5 -57t156 -164.5t75.5 -237.5l-187 -35q-31 163 -98 249.5t-186 86.5q-98 0 -162.5 -51.5t-103 -141t-54.5 -211t-16 -261.5q0 -142 18.5 -257t58 -196.5
t101.5 -125.5t149 -44q109 0 177.5 65.5t95.5 159t37 176.5l186 -20q-20 -143 -62 -245.5t-105 -168t-146 -96.5t-185 -31zM328 1639l209 272h166l209 -272h-152l-141 162l-142 -162h-149z" />
    <glyph glyph-name="ccircumflex" unicode="&#x109;" horiz-adv-x="893" 
d="M467 -31q-99 0 -172 37.5t-120.5 110.5t-71 179t-23.5 243q0 130 23.5 235.5t72.5 180.5t122.5 116t174.5 41q150 0 234.5 -81.5t109.5 -250.5l-168 -35q-14 86 -37 133t-61 66t-82 19q-80 0 -129 -61.5t-65.5 -160.5t-16.5 -200q0 -100 11 -178t36 -132t63.5 -82
t94.5 -28q65 0 106 32t60.5 89.5t29.5 117.5l170 -34q-37 -185 -130 -271t-232 -86zM178 1272l209 272h166l209 -272h-152l-141 162l-142 -162h-149z" />
    <glyph glyph-name="Ccaron" unicode="&#x10c;" horiz-adv-x="1194" 
d="M612 -31q-117 0 -212.5 44t-163 139.5t-104 245t-36.5 360.5q0 207 35.5 361t103 255t166 151t224.5 50q137 0 237.5 -57t156 -164.5t75.5 -237.5l-187 -35q-31 163 -98 249.5t-186 86.5q-98 0 -162.5 -51.5t-103 -141t-54.5 -211t-16 -261.5q0 -142 18.5 -257t58 -196.5
t101.5 -125.5t149 -44q109 0 177.5 65.5t95.5 159t37 176.5l186 -20q-20 -143 -62 -245.5t-105 -168t-146 -96.5t-185 -31zM541 1639l-207 272h149l142 -162l139 162h152l-209 -272h-166z" />
    <glyph glyph-name="ccaron" unicode="&#x10d;" horiz-adv-x="893" 
d="M467 -31q-99 0 -172 37.5t-120.5 110.5t-71 179t-23.5 243q0 130 23.5 235.5t72.5 180.5t122.5 116t174.5 41q150 0 234.5 -81.5t109.5 -250.5l-168 -35q-14 86 -37 133t-61 66t-82 19q-80 0 -129 -61.5t-65.5 -160.5t-16.5 -200q0 -100 11 -178t36 -132t63.5 -82
t94.5 -28q65 0 106 32t60.5 89.5t29.5 117.5l170 -34q-37 -185 -130 -271t-232 -86zM381 1272l-207 272h149l142 -162l139 162h152l-209 -272h-166z" />
    <glyph glyph-name="Dcaron" unicode="&#x10e;" horiz-adv-x="1210" 
d="M135 0v1544h367q151 0 263.5 -45.5t186.5 -139.5t111 -238.5t37 -342.5q0 -395 -148.5 -586.5t-449.5 -191.5h-367zM317 158h189q111 0 188 43.5t125 124t69 195t21 257.5q0 142 -21 255t-68 191.5t-123 120t-187 41.5h-193v-1228zM455 1639l-207 272h149l142 -162
l139 162h152l-209 -272h-166z" />
    <glyph glyph-name="dcaron" unicode="&#x10f;" horiz-adv-x="985" 
d="M430 -31q-89 0 -154.5 41t-109 116.5t-65 182.5t-21.5 240q0 278 88.5 420.5t253.5 142.5q83 0 149 -36t109 -120v588h176v-1544h-170l-2 131q-42 -88 -106 -125t-148 -37zM471 113q82 0 133 66t66.5 165t15.5 193q0 93 -12 172t-38 136.5t-66.5 89.5t-98.5 32
q-105 0 -157 -105.5t-52 -322.5q0 -112 14 -192.5t40.5 -132.5t65.5 -76.5t89 -24.5zM938 1200v344h162l-41 -344h-121z" />
    <glyph glyph-name="Dmacron" unicode="&#x110;" horiz-adv-x="1210" 
d="M135 0v713h-117v143h117v688h367q151 0 263.5 -45.5t186.5 -139.5t111 -238.5t37 -342.5q0 -395 -148.5 -586.5t-449.5 -191.5h-367zM317 158h189q111 0 188 43.5t125 124t69 195t21 257.5q0 142 -21 255t-68 191.5t-123 120t-187 41.5h-193v-530h250v-143h-250v-555z
" />
    <glyph glyph-name="dmacron" unicode="&#x111;" horiz-adv-x="985" 
d="M395 1249v142h285v153h176v-153h114v-142h-114v-1249h-170l-2 131q-42 -88 -106 -125t-148 -37q-89 0 -154.5 41t-109 116.5t-65 182.5t-21.5 240q0 278 88.5 420.5t253.5 142.5q83 0 149 -36t109 -120v293h-285zM471 113q82 0 133 66t66.5 165t15.5 193q0 93 -12 172
t-38 136.5t-66.5 89.5t-98.5 32q-105 0 -157 -105.5t-52 -322.5q0 -112 14 -192.5t40.5 -132.5t65.5 -76.5t89 -24.5z" />
    <glyph glyph-name="Emacron" unicode="&#x112;" horiz-adv-x="1083" 
d="M135 0v1544h828v-162h-646v-516h611v-159h-611v-545h674v-162h-856zM260 1704v142h575v-142h-575z" />
    <glyph glyph-name="emacron" unicode="&#x113;" horiz-adv-x="946" 
d="M473 -31q-200 0 -296.5 146.5t-96.5 423.5q0 133 25 239.5t75 180.5t125 113.5t176 39.5q145 0 233.5 -75.5t117 -190t28.5 -223.5v-119h-602q2 -95 15 -167.5t38.5 -121.5t66 -73.5t97.5 -24.5q67 0 109.5 25t64 72.5t33.5 100.5l160 -43q-37 -154 -131 -228.5
t-238 -74.5zM258 643h424q-2 122 -27.5 196t-73.5 104t-104 30q-55 0 -95.5 -26.5t-67 -71.5t-40.5 -105t-16 -127zM184 1337v142h575v-142h-575z" />
    <glyph glyph-name="Edot" unicode="&#x116;" horiz-adv-x="1083" 
d="M135 0v1544h828v-162h-646v-516h611v-159h-611v-545h674v-162h-856zM492 1678v233h151v-233h-151z" />
    <glyph glyph-name="edot" unicode="&#x117;" horiz-adv-x="946" 
d="M473 -31q-200 0 -296.5 146.5t-96.5 423.5q0 133 25 239.5t75 180.5t125 113.5t176 39.5q145 0 233.5 -75.5t117 -190t28.5 -223.5v-119h-602q2 -95 15 -167.5t38.5 -121.5t66 -73.5t97.5 -24.5q67 0 109.5 25t64 72.5t33.5 100.5l160 -43q-37 -154 -131 -228.5
t-238 -74.5zM258 643h424q-2 122 -27.5 196t-73.5 104t-104 30q-55 0 -95.5 -26.5t-67 -71.5t-40.5 -105t-16 -127zM404 1311v233h151v-233h-151z" />
    <glyph glyph-name="Eogonek" unicode="&#x118;" horiz-adv-x="1083" 
d="M135 0v1544h828v-162h-646v-516h611v-159h-611v-545h674v-162h-856zM874 -348q-40 0 -73.5 9.5t-58 30t-38.5 51.5t-14 73q0 63 20.5 107.5t49.5 76.5h88q-23 -34 -33 -62.5t-10 -66.5q0 -51 30 -76.5t78 -25.5q58 0 109 28l35 -100q-28 -17 -74.5 -31t-108.5 -14z" />
    <glyph glyph-name="eogonek" unicode="&#x119;" horiz-adv-x="946" 
d="M532 -348q62 0 108.5 14t74.5 31l-35 100q-51 -28 -109 -28q-48 0 -78 25.5t-30 76.5q0 38 10 67q5 15 14 31q134 4 224 74q94 75 131 229l-160 43q-12 -53 -33.5 -100.5t-64 -72.5t-109.5 -25q-57 0 -97.5 24.5t-66 73.5t-38.5 121.5t-15 167.5h602v119
q0 109 -28.5 223.5t-117 190t-233.5 75.5q-101 0 -176 -39.5t-125 -113.5t-75 -180.5t-25 -239.5q0 -277 96 -424q78 -117 221 -140q-16 -23 -29 -51q-20 -45 -20 -108q0 -42 14 -73t38.5 -51.5t58 -30t73.5 -9.5zM258 643q2 67 16 127t40.5 105t67 71.5t95.5 26.5
q56 0 104 -30t73.5 -104t27.5 -196h-424z" />
    <glyph glyph-name="Ecaron" unicode="&#x11a;" horiz-adv-x="1083" 
d="M135 0v1544h828v-162h-646v-516h611v-159h-611v-545h674v-162h-856zM467 1639l-207 272h149l142 -162l139 162h152l-209 -272h-166z" />
    <glyph glyph-name="ecaron" unicode="&#x11b;" horiz-adv-x="946" 
d="M473 -31q-200 0 -296.5 146.5t-96.5 423.5q0 133 25 239.5t75 180.5t125 113.5t176 39.5q145 0 233.5 -75.5t117 -190t28.5 -223.5v-119h-602q2 -95 15 -167.5t38.5 -121.5t66 -73.5t97.5 -24.5q67 0 109.5 25t64 72.5t33.5 100.5l160 -43q-37 -154 -131 -228.5
t-238 -74.5zM258 643h424q-2 122 -27.5 196t-73.5 104t-104 30q-55 0 -95.5 -26.5t-67 -71.5t-40.5 -105t-16 -127zM395 1272l-207 272h149l142 -162l139 162h152l-209 -272h-166z" />
    <glyph glyph-name="Gbreve" unicode="&#x11e;" horiz-adv-x="1228" 
d="M606 -31q-111 0 -205 44t-161.5 139t-105.5 244.5t-38 361.5q0 206 37 359.5t106 255t168 152t224 50.5q135 0 235 -50.5t155.5 -152t78.5 -227.5l-182 -39q-23 124 -68 194t-105.5 93.5t-117.5 23.5q-92 0 -156.5 -48.5t-105 -136t-59.5 -210t-19 -270.5q0 -149 20 -265
t61.5 -195.5t104 -121t148.5 -41.5q99 0 171.5 49t101 128t28.5 163v147h-168v152h348v-768h-121l-31 158q-59 -96 -145 -142.5t-199 -46.5zM623 1655q-65 0 -115 18t-84.5 50.5t-55 76.5t-26.5 95h129q10 -37 33 -62.5t54 -37t65 -11.5q53 0 88 19.5t48.5 46.5t18.5 45h127
q-10 -78 -51.5 -137t-103.5 -81t-127 -22z" />
    <glyph glyph-name="gbreve" unicode="&#x11f;" horiz-adv-x="985" 
d="M461 -424q-97 0 -167 28.5t-118 76.5q-51 53 -76 118l142 68q12 -26 26 -48t33 -40q26 -26 62.5 -39.5t93.5 -13.5q69 0 116 23t72 67q19 32 27 73.5t8 87.5v166q-42 -81 -107 -117t-147 -36q-175 0 -260.5 145.5t-85.5 417.5q0 278 88.5 418.5t249.5 140.5
q86 0 153.5 -36.5t112.5 -127.5l2 133h170v-1077q0 -93 -18.5 -170.5t-65.5 -136.5q-46 -57 -120 -89t-191 -32zM471 133q83 0 133.5 62.5t66 159t15.5 190.5q0 148 -28 246.5t-79 138t-108 39.5q-104 0 -156.5 -102.5t-52.5 -317.5q0 -113 14 -192t40.5 -129t65.5 -72.5
t89 -22.5zM475 1288q-65 0 -115 18t-84.5 50.5t-55 76.5t-26.5 95h129q10 -37 33 -62.5t54 -37t65 -11.5q53 0 88 19.5t48.5 46.5t18.5 45h127q-10 -78 -51.5 -137t-103.5 -81t-127 -22z" />
    <glyph glyph-name="Gcedilla" unicode="&#x122;" horiz-adv-x="1228" 
d="M606 -31q-111 0 -205 44t-161.5 139t-105.5 244.5t-38 361.5q0 206 37 359.5t106 255t168 152t224 50.5q135 0 235 -50.5t155.5 -152t78.5 -227.5l-182 -39q-23 124 -68 194t-105.5 93.5t-117.5 23.5q-92 0 -156.5 -48.5t-105 -136t-59.5 -210t-19 -270.5q0 -149 20 -265
t61.5 -195.5t104 -121t148.5 -41.5q99 0 171.5 49t101 128t28.5 163v147h-168v152h348v-768h-121l-31 158q-59 -96 -145 -142.5t-199 -46.5zM416 -393l168 272h135l-135 -272h-168z" />
    <glyph glyph-name="gcedilla" unicode="&#x123;" horiz-adv-x="985" 
d="M461 -424q-97 0 -167 28.5t-118 76.5q-51 53 -76 118l142 68q12 -26 26 -48t33 -40q26 -26 62.5 -39.5t93.5 -13.5q69 0 116 23t72 67q19 32 27 73.5t8 87.5v166q-42 -81 -107 -117t-147 -36q-175 0 -260.5 145.5t-85.5 417.5q0 278 88.5 418.5t249.5 140.5
q86 0 153.5 -36.5t112.5 -127.5l2 133h170v-1077q0 -93 -18.5 -170.5t-65.5 -136.5q-46 -57 -120 -89t-191 -32zM471 133q83 0 133.5 62.5t66 159t15.5 190.5q0 148 -28 246.5t-79 138t-108 39.5q-104 0 -156.5 -102.5t-52.5 -317.5q0 -113 14 -192t40.5 -129t65.5 -72.5
t89 -22.5zM385 1272l168 272h135l-135 -272h-168z" />
    <glyph glyph-name="Imacron" unicode="&#x12a;" horiz-adv-x="467" 
d="M135 0v1544h182v-1544h-182zM-56 1704v142h575v-142h-575z" />
    <glyph glyph-name="imacron" unicode="&#x12b;" horiz-adv-x="420" 
d="M115 0v1081h176v-1081h-176zM-81 1337v142h575v-142h-575z" />
    <glyph glyph-name="Iogonek" unicode="&#x12e;" horiz-adv-x="467" 
d="M135 0v1544h182v-1544h-182zM320 -348q-40 0 -73.5 9.5t-58 30t-38.5 51.5t-14 73q0 63 20.5 107.5t49.5 76.5h88q-23 -34 -33 -62.5t-10 -66.5q0 -51 30 -76.5t78 -25.5q58 0 109 28l35 -100q-28 -17 -74.5 -31t-108.5 -14z" />
    <glyph glyph-name="iogonek" unicode="&#x12f;" horiz-adv-x="420" 
d="M115 0v1081h176v-1081h-176zM115 1317v227h176v-227h-176zM300 -348q-40 0 -73.5 9.5t-58 30t-38.5 51.5t-14 73q0 63 20.5 107.5t49.5 76.5h88q-23 -34 -33 -62.5t-10 -66.5q0 -51 30 -76.5t78 -25.5q58 0 109 28l35 -100q-28 -17 -74.5 -31t-108.5 -14z" />
    <glyph glyph-name="Idotaccent" unicode="&#x130;" horiz-adv-x="467" 
d="M135 0v1544h182v-1544h-182zM155 1678v233h151v-233h-151z" />
    <glyph glyph-name="Kcedilla" unicode="&#x136;" horiz-adv-x="1122" 
d="M135 0v1544h182v-729l541 729h201l-422 -573l489 -971h-211l-405 817l-193 -258v-559h-182zM392 -393l168 272h135l-135 -272h-168z" />
    <glyph glyph-name="kcedilla" unicode="&#x137;" horiz-adv-x="868" 
d="M115 0v1544h176v-878l323 415h201l-276 -348l321 -733h-196l-250 588l-123 -156v-432h-176zM265 -393l168 272h135l-135 -272h-168z" />
    <glyph glyph-name="Lacute" unicode="&#x139;" horiz-adv-x="981" 
d="M135 0v1544h182v-1382h619v-162h-801zM163 1639l158 272h180l-194 -272h-144z" />
    <glyph glyph-name="lacute" unicode="&#x13a;" horiz-adv-x="420" 
d="M115 0v1544h176v-1544h-176zM136 1639l158 272h180l-194 -272h-144z" />
    <glyph glyph-name="Lcedilla" unicode="&#x13b;" horiz-adv-x="981" 
d="M135 0v1544h182v-1382h619v-162h-801zM346 -393l168 272h135l-135 -272h-168z" />
    <glyph glyph-name="lcedilla" unicode="&#x13c;" horiz-adv-x="420" 
d="M115 0v1544h176v-1544h-176zM-23 -393l168 272h135l-135 -272h-168z" />
    <glyph glyph-name="Lcaron" unicode="&#x13d;" horiz-adv-x="981" 
d="M135 0v1544h182v-1382h619v-162h-801zM438 1200v344h162l-41 -344h-121z" />
    <glyph glyph-name="lcaron" unicode="&#x13e;" horiz-adv-x="420" 
d="M115 0v1544h176v-1544h-176zM373 1200v344h162l-41 -344h-121z" />
    <glyph glyph-name="Nacute" unicode="&#x143;" horiz-adv-x="1212" 
d="M135 0v1544h197l555 -1214v1214h176v-1544h-197l-555 1210v-1210h-176zM514 1639l158 272h180l-194 -272h-144z" />
    <glyph glyph-name="nacute" unicode="&#x144;" horiz-adv-x="968" 
d="M115 0v1081h168l4 -135q27 55 68 93t94 55.5t108 17.5q60 0 111.5 -19t85.5 -51q42 -40 64 -99t22 -150v-793h-176v745q0 56 -10 102.5t-38 74.5q-18 20 -45 30.5t-65 10.5q-85 0 -137.5 -72t-65 -153.5t-12.5 -141.5v-596h-176zM418 1272l158 272h180l-194 -272h-144z
" />
    <glyph glyph-name="Ncedilla" unicode="&#x145;" horiz-adv-x="1212" 
d="M135 0v1544h197l555 -1214v1214h176v-1544h-197l-555 1210v-1210h-176zM412 -393l168 272h135l-135 -272h-168z" />
    <glyph glyph-name="ncedilla" unicode="&#x146;" horiz-adv-x="968" 
d="M115 0v1081h168l4 -135q27 55 68 93t94 55.5t108 17.5q60 0 111.5 -19t85.5 -51q42 -40 64 -99t22 -150v-793h-176v745q0 56 -10 102.5t-38 74.5q-18 20 -45 30.5t-65 10.5q-85 0 -137.5 -72t-65 -153.5t-12.5 -141.5v-596h-176zM263 -393l168 272h135l-135 -272h-168z
" />
    <glyph glyph-name="Ncaron" unicode="&#x147;" horiz-adv-x="1212" 
d="M135 0v1544h197l555 -1214v1214h176v-1544h-197l-555 1210v-1210h-176zM525 1639l-207 272h149l142 -162l139 162h152l-209 -272h-166z" />
    <glyph glyph-name="ncaron" unicode="&#x148;" horiz-adv-x="968" 
d="M115 0v1081h168l4 -135q27 55 68 93t94 55.5t108 17.5q60 0 111.5 -19t85.5 -51q42 -40 64 -99t22 -150v-793h-176v745q0 56 -10 102.5t-38 74.5q-18 20 -45 30.5t-65 10.5q-85 0 -137.5 -72t-65 -153.5t-12.5 -141.5v-596h-176zM398 1272l-207 272h149l142 -162l139 162
h152l-209 -272h-166z" />
    <glyph glyph-name="Omacron" unicode="&#x14c;" horiz-adv-x="1302" 
d="M643 -31q-128 0 -229.5 49.5t-172 149t-108 250t-37.5 352.5q0 204 37.5 355t108 251t172 149.5t229.5 49.5q129 0 231 -49.5t172.5 -149.5t108 -251t37.5 -355q0 -202 -37.5 -352.5t-108 -250t-172.5 -149t-231 -49.5zM643 127q91 0 158 45t111.5 129t66.5 203t22 266
q0 149 -22 268.5t-66.5 203.5t-111.5 129.5t-158 45.5q-90 0 -157 -45.5t-111 -129.5t-66 -203.5t-22 -268.5q0 -147 22 -266t66 -203t111 -129t157 -45zM360 1704v142h575v-142h-575z" />
    <glyph glyph-name="omacron" unicode="&#x14d;" horiz-adv-x="975" 
d="M479 -31q-102 0 -177 40.5t-124.5 115t-73.5 180t-24 236.5q0 130 24 236t73 180t124 114.5t178 40.5t179 -40.5t125.5 -114.5t73.5 -180t24 -236q0 -131 -24 -236.5t-73.5 -180t-125.5 -115t-179 -40.5zM479 119q84 0 136 60.5t68.5 161t16.5 200.5q0 155 -29.5 251.5
t-82 133.5t-109.5 37q-58 0 -100 -28.5t-69 -82.5t-39.5 -132.5t-12.5 -178.5t12.5 -178.5t39.5 -132.5t69 -82.5t100 -28.5zM193 1337v142h575v-142h-575z" />
    <glyph glyph-name="Odblacute" unicode="&#x150;" horiz-adv-x="1302" 
d="M643 -31q-128 0 -229.5 49.5t-172 149t-108 250t-37.5 352.5q0 204 37.5 355t108 251t172 149.5t229.5 49.5q129 0 231 -49.5t172.5 -149.5t108 -251t37.5 -355q0 -202 -37.5 -352.5t-108 -250t-172.5 -149t-231 -49.5zM643 127q91 0 158 45t111.5 129t66.5 203t22 266
q0 149 -22 268.5t-66.5 203.5t-111.5 129.5t-158 45.5q-90 0 -157 -45.5t-111 -129.5t-66 -203.5t-22 -268.5q0 -147 22 -266t66 -203t111 -129t157 -45zM467 1639l94 272h148l-129 -272h-113zM713 1639l96 272h146l-127 -272h-115z" />
    <glyph glyph-name="odblacute" unicode="&#x151;" horiz-adv-x="975" 
d="M479 -31q-102 0 -177 40.5t-124.5 115t-73.5 180t-24 236.5q0 130 24 236t73 180t124 114.5t178 40.5t179 -40.5t125.5 -114.5t73.5 -180t24 -236q0 -131 -24 -236.5t-73.5 -180t-125.5 -115t-179 -40.5zM479 119q84 0 136 60.5t68.5 161t16.5 200.5q0 155 -29.5 251.5
t-82 133.5t-109.5 37q-58 0 -100 -28.5t-69 -82.5t-39.5 -132.5t-12.5 -178.5t12.5 -178.5t39.5 -132.5t69 -82.5t100 -28.5zM307 1272l94 272h148l-129 -272h-113zM553 1272l96 272h146l-127 -272h-115z" />
    <glyph glyph-name="Racute" unicode="&#x154;" horiz-adv-x="1151" 
d="M135 0v1544h483q157 0 256.5 -65t132.5 -171t33 -214q0 -93 -27.5 -180t-80.5 -146.5t-119 -89.5l262 -678h-207l-233 641h-37h-283v-641h-180zM315 793h265q60 0 109.5 17t85 54t54.5 94t19 138q0 158 -71.5 227.5t-207.5 69.5h-254v-600zM473 1639l158 272h180
l-194 -272h-144z" />
    <glyph glyph-name="racute" unicode="&#x155;" horiz-adv-x="604" 
d="M115 0v1081h172l4 -168q9 29 26 56t35 49q32 38 71 56t77 18q54 0 90 -11l-15 -157q-30 6 -86 6q-27 0 -54 -10t-50 -33q-42 -44 -68 -126.5t-26 -213.5v-547h-176zM270 1272l158 272h180l-194 -272h-144z" />
    <glyph glyph-name="Rcedilla" unicode="&#x156;" horiz-adv-x="1151" 
d="M135 0v1544h483q157 0 256.5 -65t132.5 -171t33 -214q0 -93 -27.5 -180t-80.5 -146.5t-119 -89.5l262 -678h-207l-233 641h-37h-283v-641h-180zM315 793h265q60 0 109.5 17t85 54t54.5 94t19 138q0 158 -71.5 227.5t-207.5 69.5h-254v-600zM357 -393l168 272h135
l-135 -272h-168z" />
    <glyph glyph-name="rcedilla" unicode="&#x157;" horiz-adv-x="604" 
d="M115 0v1081h172l4 -168q9 29 26 56t35 49q32 38 71 56t77 18q54 0 90 -11l-15 -157q-30 6 -86 6q-27 0 -54 -10t-50 -33q-42 -44 -68 -126.5t-26 -213.5v-547h-176zM116 -393l168 272h135l-135 -272h-168z" />
    <glyph glyph-name="Rcaron" unicode="&#x158;" horiz-adv-x="1151" 
d="M135 0v1544h483q157 0 256.5 -65t132.5 -171t33 -214q0 -93 -27.5 -180t-80.5 -146.5t-119 -89.5l262 -678h-207l-233 641h-37h-283v-641h-180zM315 793h265q60 0 109.5 17t85 54t54.5 94t19 138q0 158 -71.5 227.5t-207.5 69.5h-254v-600zM471 1639l-207 272h149
l142 -162l139 162h152l-209 -272h-166z" />
    <glyph glyph-name="rcaron" unicode="&#x159;" horiz-adv-x="604" 
d="M115 0v1081h172l4 -168q9 29 26 56t35 49q32 38 71 56t77 18q54 0 90 -11l-15 -157q-30 6 -86 6q-27 0 -54 -10t-50 -33q-42 -44 -68 -126.5t-26 -213.5v-547h-176zM322 1272l-207 272h149l142 -162l139 162h152l-209 -272h-166z" />
    <glyph glyph-name="Sacute" unicode="&#x15a;" horiz-adv-x="1114" 
d="M547 -31q-120 0 -205 31t-142 89t-90.5 140.5t-50.5 184.5l179 35q9 -62 26.5 -120t51 -103.5t88.5 -73t139 -27.5q103 0 169 39.5t87.5 101.5t21.5 123q0 106 -52 179.5t-175 111.5l-160 49q-90 28 -155 66.5t-107 90.5t-62 118.5t-20 150.5q0 139 64.5 242t166 140.5
t207.5 37.5q94 0 170 -21.5t133 -68.5t96.5 -120.5t61.5 -176.5l-170 -47q-12 54 -32.5 104.5t-54 89.5t-83 62.5t-119.5 23.5q-100 0 -161 -40.5t-80 -102t-19 -119.5q0 -103 57 -168.5t173 -99.5l178 -53q87 -26 147 -62.5t101 -87.5q84 -106 84 -282q0 -98 -27 -178.5
t-84 -138t-144.5 -89t-207.5 -31.5zM426 1639l158 272h180l-194 -272h-144z" />
    <glyph glyph-name="sacute" unicode="&#x15b;" horiz-adv-x="843" 
d="M408 -31q-88 0 -152 23.5t-106 66.5q-41 41 -68.5 100.5t-36.5 127.5l158 35q11 -51 25 -92.5t42 -69.5q22 -23 52.5 -35t76.5 -12q91 0 131.5 43t40.5 120q0 55 -17 90t-51 56.5t-73 34.5l-117 39q-123 42 -181 118.5t-58 186.5q0 68 21 125t62.5 98.5t102 64.5
t139.5 23q74 0 134 -19.5t100 -57.5t63 -83q28 -55 37 -114l-158 -37q-11 48 -26 78.5t-37 52.5q-17 17 -44.5 28t-66.5 11q-74 0 -115.5 -41t-41.5 -119q0 -65 34 -104t111 -64l125 -39q125 -38 179.5 -117.5t54.5 -197.5q0 -105 -49 -182.5t-128 -107.5t-163 -30z
M311 1272l158 272h180l-194 -272h-144z" />
    <glyph glyph-name="Scedilla" unicode="&#x15e;" horiz-adv-x="1114" 
d="M547 -31q-120 0 -205 31t-142 89t-90.5 140.5t-50.5 184.5l179 35q9 -62 26.5 -120t51 -103.5t88.5 -73t139 -27.5q103 0 169 39.5t87.5 101.5t21.5 123q0 106 -52 179.5t-175 111.5l-160 49q-90 28 -155 66.5t-107 90.5t-62 118.5t-20 150.5q0 139 64.5 242t166 140.5
t207.5 37.5q94 0 170 -21.5t133 -68.5t96.5 -120.5t61.5 -176.5l-170 -47q-12 54 -32.5 104.5t-54 89.5t-83 62.5t-119.5 23.5q-100 0 -161 -40.5t-80 -102t-19 -119.5q0 -103 57 -168.5t173 -99.5l178 -53q87 -26 147 -62.5t101 -87.5q84 -106 84 -282q0 -98 -27 -178.5
t-84 -138t-144.5 -89t-207.5 -31.5zM328 -393l168 272h135l-135 -272h-168z" />
    <glyph glyph-name="Scedilla" unicode="&#xf6c1;" horiz-adv-x="1114" 
d="M547 -31q-120 0 -205 31t-142 89t-90.5 140.5t-50.5 184.5l179 35q9 -62 26.5 -120t51 -103.5t88.5 -73t139 -27.5q103 0 169 39.5t87.5 101.5t21.5 123q0 106 -52 179.5t-175 111.5l-160 49q-90 28 -155 66.5t-107 90.5t-62 118.5t-20 150.5q0 139 64.5 242t166 140.5
t207.5 37.5q94 0 170 -21.5t133 -68.5t96.5 -120.5t61.5 -176.5l-170 -47q-12 54 -32.5 104.5t-54 89.5t-83 62.5t-119.5 23.5q-100 0 -161 -40.5t-80 -102t-19 -119.5q0 -103 57 -168.5t173 -99.5l178 -53q87 -26 147 -62.5t101 -87.5q84 -106 84 -282q0 -98 -27 -178.5
t-84 -138t-144.5 -89t-207.5 -31.5zM328 -393l168 272h135l-135 -272h-168z" />
    <glyph glyph-name="scedilla" unicode="&#x15f;" horiz-adv-x="843" 
d="M408 -31q-88 0 -152 23.5t-106 66.5q-41 41 -68.5 100.5t-36.5 127.5l158 35q11 -51 25 -92.5t42 -69.5q22 -23 52.5 -35t76.5 -12q91 0 131.5 43t40.5 120q0 55 -17 90t-51 56.5t-73 34.5l-117 39q-123 42 -181 118.5t-58 186.5q0 68 21 125t62.5 98.5t102 64.5
t139.5 23q74 0 134 -19.5t100 -57.5t63 -83q28 -55 37 -114l-158 -37q-11 48 -26 78.5t-37 52.5q-17 17 -44.5 28t-66.5 11q-74 0 -115.5 -41t-41.5 -119q0 -65 34 -104t111 -64l125 -39q125 -38 179.5 -117.5t54.5 -197.5q0 -105 -49 -182.5t-128 -107.5t-163 -30z
M202 -393l168 272h135l-135 -272h-168z" />
    <glyph glyph-name="scedilla" unicode="&#xf6c2;" horiz-adv-x="843" 
d="M408 -31q-88 0 -152 23.5t-106 66.5q-41 41 -68.5 100.5t-36.5 127.5l158 35q11 -51 25 -92.5t42 -69.5q22 -23 52.5 -35t76.5 -12q91 0 131.5 43t40.5 120q0 55 -17 90t-51 56.5t-73 34.5l-117 39q-123 42 -181 118.5t-58 186.5q0 68 21 125t62.5 98.5t102 64.5
t139.5 23q74 0 134 -19.5t100 -57.5t63 -83q28 -55 37 -114l-158 -37q-11 48 -26 78.5t-37 52.5q-17 17 -44.5 28t-66.5 11q-74 0 -115.5 -41t-41.5 -119q0 -65 34 -104t111 -64l125 -39q125 -38 179.5 -117.5t54.5 -197.5q0 -105 -49 -182.5t-128 -107.5t-163 -30z
M202 -393l168 272h135l-135 -272h-168z" />
    <glyph glyph-name="Tcedilla" unicode="&#x162;" horiz-adv-x="1075" 
d="M438 0v1382h-407v162h999v-162h-409v-1382h-183zM295 -393l168 272h135l-135 -272h-168z" />
    <glyph glyph-name="tcedilla" unicode="&#x163;" horiz-adv-x="585" 
d="M379 -20q-105 0 -160 62.5t-55 190.5v701h-113v147h113v308h176v-308h178v-147h-178v-674q0 -71 22.5 -100t73.5 -29q55 0 94 12l13 -145q-29 -9 -69.5 -13.5t-94.5 -4.5zM163 -393l168 272h135l-135 -272h-168z" />
    <glyph glyph-name="Tcaron" unicode="&#x164;" horiz-adv-x="1075" 
d="M438 0v1382h-407v162h999v-162h-409v-1382h-183zM449 1639l-207 272h149l142 -162l139 162h152l-209 -272h-166z" />
    <glyph glyph-name="tcaron" unicode="&#x165;" horiz-adv-x="585" 
d="M379 -20q-105 0 -160 62.5t-55 190.5v701h-113v147h113v308h176v-308h178v-147h-178v-674q0 -71 22.5 -100t73.5 -29q55 0 94 12l13 -145q-29 -9 -69.5 -13.5t-94.5 -4.5zM418 1200v344h162l-41 -344h-121z" />
    <glyph glyph-name="Umacron" unicode="&#x16a;" horiz-adv-x="1192" 
d="M592 -37q-132 0 -222 40.5t-145.5 114t-79.5 175.5t-24 225v1026h182v-1026q0 -204 70.5 -297.5t218.5 -93.5q141 0 211.5 93.5t70.5 297.5v1026h183v-1026q0 -123 -24 -225t-79 -175.5t-143.5 -114t-218.5 -40.5zM301 1704v142h575v-142h-575z" />
    <glyph glyph-name="umacron" unicode="&#x16b;" horiz-adv-x="968" 
d="M395 -31q-59 0 -107.5 17t-89 55t-62 100.5t-21.5 159.5v780h176v-741q0 -57 10 -104t39 -76q19 -17 45 -27t64 -10q83 0 134 66t66 151t15 145v596h176v-1081h-168l-4 135q-28 -56 -69.5 -94.5t-94.5 -55t-109 -16.5zM186 1337v142h575v-142h-575z" />
    <glyph glyph-name="Uring" unicode="&#x16e;" horiz-adv-x="1192" 
d="M592 -37q-132 0 -222 40.5t-145.5 114t-79.5 175.5t-24 225v1026h182v-1026q0 -204 70.5 -297.5t218.5 -93.5q141 0 211.5 93.5t70.5 297.5v1026h183v-1026q0 -123 -24 -225t-79 -175.5t-143.5 -114t-218.5 -40.5zM585 1635q-57 0 -98.5 17.5t-69.5 48t-41.5 71.5
t-13.5 88q0 74 31 126t83 74.5t109 22.5q85 0 138.5 -37t71.5 -88t18 -98t-13.5 -88t-42 -71.5t-71.5 -48t-101 -17.5zM585 1727q44 0 74 21t39.5 53t9.5 59q0 42 -16 72t-46 44.5t-61 14.5q-45 0 -74.5 -23.5t-38 -52.5t-8.5 -55q0 -27 7.5 -51t22.5 -42.5t37.5 -29
t53.5 -10.5z" />
    <glyph glyph-name="uring" unicode="&#x16f;" horiz-adv-x="968" 
d="M395 -31q-59 0 -107.5 17t-89 55t-62 100.5t-21.5 159.5v780h176v-741q0 -57 10 -104t39 -76q19 -17 45 -27t64 -10q83 0 134 66t66 151t15 145v596h176v-1081h-168l-4 135q-28 -56 -69.5 -94.5t-94.5 -55t-109 -16.5zM473 1268q-57 0 -98.5 17.5t-69.5 48t-41.5 71.5
t-13.5 88q0 74 31 126t83 74.5t109 22.5q85 0 138.5 -37t71.5 -88t18 -98t-13.5 -88t-42 -71.5t-71.5 -48t-101 -17.5zM473 1360q44 0 74 21t39.5 53t9.5 59q0 42 -16 72t-46 44.5t-61 14.5q-45 0 -74.5 -23.5t-38 -52.5t-8.5 -55q0 -27 7.5 -51t22.5 -42.5t37.5 -29
t53.5 -10.5z" />
    <glyph glyph-name="Udblacute" unicode="&#x170;" horiz-adv-x="1192" 
d="M592 -37q-132 0 -222 40.5t-145.5 114t-79.5 175.5t-24 225v1026h182v-1026q0 -204 70.5 -297.5t218.5 -93.5q141 0 211.5 93.5t70.5 297.5v1026h183v-1026q0 -123 -24 -225t-79 -175.5t-143.5 -114t-218.5 -40.5zM401 1639l94 272h148l-129 -272h-113zM647 1639l96 272
h146l-127 -272h-115z" />
    <glyph glyph-name="udblacute" unicode="&#x171;" horiz-adv-x="968" 
d="M395 -31q-59 0 -107.5 17t-89 55t-62 100.5t-21.5 159.5v780h176v-741q0 -57 10 -104t39 -76q19 -17 45 -27t64 -10q83 0 134 66t66 151t15 145v596h176v-1081h-168l-4 135q-28 -56 -69.5 -94.5t-94.5 -55t-109 -16.5zM291 1272l94 272h148l-129 -272h-113zM537 1272
l96 272h146l-127 -272h-115z" />
    <glyph glyph-name="Uogonek" unicode="&#x172;" horiz-adv-x="1192" 
d="M674 -348q62 0 108.5 14t74.5 31l-35 100q-51 -28 -109 -28q-48 0 -78 25.5t-30 76.5q0 38 10 67q4 12 11 26q108 5 184 39q89 41 144 114.5t79 175.5t24 225v1026h-183v-1026q0 -204 -70.5 -297.5t-211.5 -93.5q-148 0 -218.5 93.5t-70.5 297.5v1026h-182v-1026
q0 -123 24 -225t79.5 -175.5t145.5 -114.5q69 -30 163 -38q-13 -19 -23 -41q-20 -45 -20 -108q0 -42 14 -73t38.5 -51.5t58 -30t73.5 -9.5z" />
    <glyph glyph-name="uogonek" unicode="&#x173;" horiz-adv-x="968" 
d="M395 -31q-59 0 -107.5 17t-89 55t-62 100.5t-21.5 159.5v780h176v-741q0 -57 10 -104t39 -76q19 -17 45 -27t64 -10q83 0 134 66t66 151t15 145v596h176v-1081h-168l-4 135q-28 -56 -69.5 -94.5t-94.5 -55t-109 -16.5zM821 -348q-40 0 -73.5 9.5t-58 30t-38.5 51.5
t-14 73q0 63 20.5 107.5t49.5 76.5h88q-23 -34 -33 -62.5t-10 -66.5q0 -51 30 -76.5t78 -25.5q58 0 109 28l35 -100q-28 -17 -74.5 -31t-108.5 -14z" />
    <glyph glyph-name="Zacute" unicode="&#x179;" horiz-adv-x="1034" 
d="M59 0v168l686 1214h-641v162h832v-168l-684 -1214h711v-162h-904zM442 1639l158 272h180l-194 -272h-144z" />
    <glyph glyph-name="zacute" unicode="&#x17a;" horiz-adv-x="794" 
d="M59 0v137l461 797h-438v147h623v-137l-461 -797h477v-147h-662zM331 1272l158 272h180l-194 -272h-144z" />
    <glyph glyph-name="Zdot" unicode="&#x17b;" horiz-adv-x="1034" 
d="M59 0v168l686 1214h-641v162h832v-168l-684 -1214h711v-162h-904zM442 1678v233h151v-233h-151z" />
    <glyph glyph-name="zdot" unicode="&#x17c;" horiz-adv-x="794" 
d="M59 0v137l461 797h-438v147h623v-137l-461 -797h477v-147h-662zM323 1311v233h151v-233h-151z" />
    <glyph glyph-name="ascendercaron" horiz-adv-x="671" 
d="M246 1200v344h162l-41 -344h-121z" />
    <glyph glyph-name="Amacron" unicode="&#x100;" horiz-adv-x="1114" 
d="M0 0l444 1544h213l443 -1544h-191l-106 385h-531l-106 -385h-166zM313 541h449l-221 821zM254 1704v142h575v-142h-575z" />
    <glyph glyph-name="dotlessextra" horiz-adv-x="420" 
d="M115 0v1081h176v-1081h-176z" />
    <glyph glyph-name="Eth" unicode="&#xd0;" horiz-adv-x="1210" 
d="M135 0v713h-117v143h117v688h367q151 0 263.5 -45.5t186.5 -139.5t111 -238.5t37 -342.5q0 -395 -148.5 -586.5t-449.5 -191.5h-367zM317 158h189q111 0 188 43.5t125 124t69 195t21 257.5q0 142 -21 255t-68 191.5t-123 120t-187 41.5h-193v-530h250v-143h-250v-555z
" />
    <glyph glyph-name="Euro" unicode="&#x20ac;" horiz-adv-x="1276" 
d="M696 -31q-99 0 -182.5 32.5t-147 103t-106 181t-59.5 265.5h-113v125h105q-3 30 -3 82q0 68 3 110h-105v123h117q13 143 53 252t104 183t151.5 111.5t195.5 37.5q82 0 156.5 -23t135.5 -76.5t104 -141.5t62 -218l-174 -35q-24 128 -66 203.5t-100.5 104t-119.5 28.5
q-75 0 -129.5 -27.5t-92.5 -81t-61.5 -133t-38.5 -184.5h387v-123h-399q-2 -28 -2 -57v-59v-39t2 -37h399v-125h-391q12 -98 36.5 -176.5t63.5 -133t93.5 -83.5t125.5 -29q108 0 175.5 65.5t93.5 161.5t37 179l178 -25q-19 -143 -60.5 -245.5t-103.5 -168t-143.5 -96.5
t-180.5 -31z" />
    <glyph glyph-name="eth" unicode="&#xf0;" horiz-adv-x="975" 
d="M479 -31q-102 0 -177 36.5t-124.5 104t-73.5 163t-24 214.5q0 182 52.5 305t138 169.5t178.5 46.5q86 0 146 -31t89 -84q-14 54 -30 101t-35.5 90t-44.5 84t-56 83l-145 -131l-68 86l144 129q-94 93 -152 135l76 109q46 -28 93 -64.5t93 -82.5l143 131l70 -86l-139 -127
q35 -45 68 -95.5t61 -107.5q49 -103 76.5 -214.5t35 -214t7.5 -194.5q0 -129 -24 -232t-73.5 -174.5t-125.5 -110t-179 -38.5zM479 117q84 0 135.5 53t68.5 141.5t17 175.5q0 177 -53 275t-168 98q-58 0 -100 -25t-69 -73t-39.5 -117.5t-12.5 -157.5q0 -87 12.5 -156
t39.5 -116.5t69 -72.5t100 -25z" />
    <glyph glyph-name="Lslash" unicode="&#x141;" horiz-adv-x="987" 
d="M135 0v580l-110 -105v174l110 105v790h182v-618l242 225v-172l-242 -227v-590h619v-162h-801z" />
    <glyph glyph-name="mu" unicode="&#xb5;" horiz-adv-x="968" 
d="M115 -393v1474h176v-741q0 -46 6 -85.5t23.5 -69t48 -46t80.5 -16.5q44 0 77 18t57 48t39.5 68t25 78.5t13 79.5t3.5 70v596h176v-1081h-168l-4 135q-22 -44 -45 -75t-51 -51.5t-62.5 -30t-77.5 -9.5q-24 0 -46 6t-40.5 15t-33 21t-21.5 24v-428h-176z" />
    </font>
</defs>
</svg>
